<svg width="489" height="52" viewBox="0 0 489 52" fill="none" xmlns="http://www.w3.org/2000/svg">
<g clip-path="url(#clip0_663_716)">
<path d="M90.7268 50.1803L83.1034 37.2793L68.1079 11.7283L61.2385 0.0837736L34.9336 32.3366C32.6718 35.2686 29.1532 37.1954 25.1321 37.1954C18.3464 37.1954 12.8174 31.6664 12.8174 24.8807C12.8174 18.0951 18.1789 12.566 25.0482 12.566C31.9178 12.566 37.3629 18.0951 37.3629 24.8807C37.3629 25.5509 37.2793 26.1374 37.1954 26.8076L47.4996 14.2415C43.4785 5.86415 34.9336 0 24.9646 0C11.2256 0 0 11.1419 0 24.9646C0 38.7034 11.2256 50.1803 24.9646 50.1803C32.9229 50.1803 40.0438 46.3268 44.5676 40.3789L59.4792 22.1162L68.3592 37.2793L68.5269 37.6143H48.6725C48.6725 37.6143 48.6725 37.6981 48.7563 37.7819C49.2588 39.2898 51.6883 49.4265 64.757 50.1803H90.7268Z" fill="#0E90CF"/>
<path d="M136.3 27.1425C136.3 29.3207 135.965 31.3312 135.379 33.1743C134.708 35.0173 133.787 36.5252 132.614 37.8655C131.441 39.1222 129.933 40.1275 128.258 40.8814C126.582 41.5517 124.655 41.9705 122.645 41.9705C120.634 41.9705 118.707 41.6354 117.032 40.8814C115.357 40.2112 113.932 39.206 112.676 37.8655C111.503 36.609 110.498 35.0173 109.827 33.1743C109.157 31.3312 108.822 29.3207 108.822 27.1425C108.822 24.9645 109.157 22.9538 109.827 21.1108C110.498 19.2678 111.503 17.76 112.676 16.5033C113.932 15.2467 115.357 14.2414 117.032 13.5712C118.707 12.901 120.55 12.4822 122.561 12.4822C124.572 12.4822 126.415 12.8173 128.09 13.5712C129.766 14.2414 131.19 15.2467 132.446 16.5033C133.619 17.76 134.625 19.3516 135.295 21.1108C135.965 22.9538 136.3 24.8806 136.3 27.1425ZM128.258 27.1425C128.258 24.7131 127.755 22.7863 126.833 21.3621C125.828 19.938 124.488 19.2678 122.645 19.2678C120.802 19.2678 119.461 19.938 118.456 21.3621C117.451 22.7863 116.948 24.7131 116.948 27.1425C116.948 29.572 117.451 31.4988 118.456 32.923C119.461 34.347 120.802 35.101 122.645 35.101C124.488 35.101 125.828 34.347 126.833 32.923C127.755 31.4988 128.258 29.572 128.258 27.1425Z" fill="#0E90CF"/>
<path d="M141.076 27.1425C141.076 25.132 141.411 23.2052 142.081 21.446C142.752 19.6867 143.673 18.095 144.93 16.7547C146.186 15.4143 147.694 14.409 149.454 13.5713C151.213 12.8173 153.223 12.3984 155.485 12.3984C156.993 12.3984 158.334 12.566 159.59 12.8173C160.847 13.0686 162.02 13.4875 163.192 13.9901L161.517 20.2732C160.762 20.0218 159.926 19.7705 159.087 19.5192C158.165 19.2678 157.244 19.1842 156.155 19.1842C153.81 19.1842 152.05 19.938 150.961 21.3622C149.789 22.7864 149.202 24.7132 149.202 27.0589C149.202 29.572 149.705 31.4989 150.794 32.923C151.883 34.2634 153.726 35.0174 156.407 35.0174C157.328 35.0174 158.418 34.9336 159.506 34.7661C160.595 34.5984 161.601 34.3471 162.522 33.9282L163.611 40.3789C162.689 40.7977 161.517 41.1327 160.176 41.3841C158.837 41.6354 157.244 41.8029 155.653 41.8029C153.14 41.8029 150.878 41.3841 149.035 40.6301C147.192 39.8762 145.684 38.8709 144.511 37.5306C143.338 36.1902 142.5 34.6822 141.914 32.923C141.327 31.1637 141.076 29.2369 141.076 27.1425Z" fill="#0E90CF"/>
<path d="M166.291 27.3938C166.291 24.8806 166.71 22.7863 167.465 20.8595C168.218 19.0165 169.224 17.4248 170.481 16.252C171.737 14.9954 173.161 14.0739 174.753 13.4037C176.344 12.7335 178.019 12.4822 179.696 12.4822C183.632 12.4822 186.817 13.655 189.078 16.0845C191.339 18.514 192.513 22.0323 192.513 26.8075C192.513 27.2263 192.513 27.8128 192.43 28.3153C192.43 28.9018 192.345 29.3207 192.345 29.7395H174.417C174.586 31.3312 175.339 32.6717 176.68 33.5932C178.019 34.5147 179.863 35.0173 182.124 35.0173C183.549 35.0173 184.973 34.8497 186.398 34.5983C187.822 34.3472 188.911 34.012 189.831 33.5932L190.922 40.0437C190.503 40.295 189.916 40.4625 189.245 40.7139C188.575 40.9652 187.737 41.1327 186.9 41.3004C186.062 41.4679 185.14 41.5517 184.135 41.7192C183.13 41.8029 182.124 41.8867 181.204 41.8867C178.691 41.8867 176.511 41.5517 174.669 40.7977C172.826 40.0437 171.234 39.0384 170.062 37.7818C168.888 36.5252 167.968 34.9335 167.381 33.1743C166.543 31.3312 166.291 29.4045 166.291 27.3938ZM184.806 24.378C184.806 23.7078 184.638 23.0376 184.471 22.4513C184.304 21.781 183.968 21.2785 183.549 20.7758C183.13 20.2731 182.627 19.8543 182.041 19.5191C181.455 19.1841 180.616 19.0165 179.696 19.0165C178.774 19.0165 178.019 19.1841 177.433 19.4355C176.763 19.7705 176.261 20.1056 175.842 20.6083C175.423 21.1108 175.088 21.6973 174.836 22.3675C174.586 23.0376 174.417 23.7078 174.334 24.378H184.806Z" fill="#0E90CF"/>
<path d="M208.596 12.4822C210.94 12.4822 212.867 12.7335 214.459 13.3199C216.05 13.8226 217.224 14.5765 218.23 15.5818C219.15 16.5871 219.821 17.76 220.24 19.1841C220.658 20.6083 220.827 22.2 220.827 23.8753V40.295C219.653 40.5464 218.145 40.7977 216.134 41.1327C214.125 41.4679 211.695 41.6354 208.846 41.6354C207.004 41.6354 205.413 41.4679 203.905 41.1327C202.397 40.7977 201.139 40.295 200.134 39.541C199.045 38.787 198.292 37.8655 197.704 36.6927C197.118 35.5198 196.867 34.0958 196.867 32.4203C196.867 30.8287 197.201 29.4045 197.873 28.3153C198.542 27.1425 199.381 26.3048 200.469 25.6346C201.558 24.9645 202.814 24.4618 204.239 24.2105C205.663 23.8753 207.088 23.7916 208.679 23.7916C209.684 23.7916 210.606 23.8755 211.443 23.9591C212.198 24.043 212.867 24.1266 213.37 24.2943V23.5403C213.37 22.2 212.951 21.1108 212.114 20.2731C211.276 19.4355 209.851 19.0165 207.841 19.0165C206.501 19.0165 205.16 19.1003 203.905 19.2678C202.564 19.4355 201.475 19.7705 200.469 20.1056L199.464 13.7388C199.883 13.5712 200.469 13.4875 201.223 13.3199C201.894 13.1524 202.647 12.9848 203.485 12.901C204.322 12.8173 205.16 12.6497 206.082 12.566C206.752 12.4822 207.674 12.4822 208.596 12.4822ZM209.265 35.6037C210.02 35.6037 210.773 35.6037 211.526 35.5198C212.198 35.5198 212.784 35.4362 213.203 35.3523V29.3207C212.867 29.2368 212.448 29.1532 211.779 29.0693C211.109 28.9857 210.523 28.9857 210.02 28.9857C209.265 28.9857 208.596 29.0693 207.924 29.1532C207.255 29.2368 206.668 29.4045 206.166 29.6558C205.663 29.9072 205.244 30.2422 204.993 30.661C204.741 31.08 204.574 31.5825 204.574 32.2527C204.574 33.5093 204.993 34.3472 205.83 34.8497C206.668 35.3523 207.757 35.6037 209.265 35.6037Z" fill="#0E90CF"/>
<path d="M227.867 14.1579C229.207 13.739 230.967 13.4039 233.061 13.0688C235.155 12.7337 237.416 12.5662 239.763 12.5662C242.107 12.5662 244.118 12.9013 245.709 13.4877C247.303 14.0741 248.558 14.9956 249.48 16.0847C250.402 17.2575 251.072 18.5978 251.407 20.1058C251.825 21.6975 251.994 23.373 251.994 25.2997V41.0492H244.118V26.305C244.118 23.7918 243.784 21.9488 243.113 20.8597C242.443 19.7707 241.187 19.268 239.343 19.268C238.757 19.268 238.171 19.268 237.5 19.3518C236.83 19.4357 236.327 19.4357 235.825 19.5193V41.0492H227.951V14.1579H227.867Z" fill="#0E90CF"/>
<path d="M281.9 12.4822C284.245 12.4822 286.172 12.7335 287.764 13.3199C289.355 13.8226 290.529 14.5765 291.534 15.5818C292.455 16.5871 293.126 17.76 293.545 19.1841C293.963 20.6083 294.131 22.2 294.131 23.8753V40.295C292.957 40.5464 291.449 40.7977 289.439 41.1327C287.43 41.4679 285 41.6354 282.151 41.6354C280.309 41.6354 278.716 41.4679 277.209 41.1327C275.701 40.7977 274.444 40.295 273.438 39.541C272.35 38.787 271.596 37.8655 271.009 36.6927C270.422 35.5198 270.172 34.0958 270.172 32.4203C270.172 30.8287 270.506 29.4045 271.177 28.3153C271.847 27.1425 272.685 26.3048 273.774 25.6346C274.863 24.9645 276.119 24.4618 277.543 24.2105C278.968 23.8753 280.392 23.7916 281.984 23.7916C282.989 23.7916 283.911 23.8755 284.748 23.9591C285.502 24.043 286.172 24.1266 286.675 24.2943V23.5403C286.675 22.2 286.256 21.1108 285.419 20.2731C284.581 19.4355 283.156 19.0165 281.145 19.0165C279.806 19.0165 278.465 19.1003 277.209 19.2678C275.868 19.4355 274.779 19.7705 273.774 20.1056L272.769 13.7388C273.188 13.5712 273.774 13.4875 274.527 13.3199C275.199 13.1524 275.952 12.9848 276.79 12.901C277.627 12.8173 278.465 12.6497 279.387 12.566C280.057 12.4822 280.978 12.4822 281.9 12.4822ZM282.57 35.6037C283.325 35.6037 284.078 35.6037 284.831 35.5198C285.502 35.5198 286.089 35.4362 286.508 35.3523V29.3207C286.172 29.2368 285.753 29.1532 285.083 29.0693C284.414 28.9857 283.826 28.9857 283.325 28.9857C282.57 28.9857 281.9 29.0693 281.229 29.1532C280.559 29.2368 279.973 29.4045 279.47 29.6558C278.968 29.9072 278.549 30.2422 278.298 30.661C278.046 31.08 277.879 31.5825 277.879 32.2527C277.879 33.5093 278.298 34.3472 279.135 34.8497C279.973 35.3523 281.062 35.6037 282.57 35.6037Z" fill="#0E90CF"/>
<path d="M299.908 27.1425C299.908 25.132 300.244 23.2052 300.914 21.446C301.583 19.6867 302.505 18.095 303.763 16.7547C305.018 15.4143 306.526 14.409 308.287 13.5713C310.045 12.8173 312.056 12.3984 314.317 12.3984C315.825 12.3984 317.166 12.566 318.422 12.8173C319.679 13.0686 320.852 13.4875 322.024 13.9901L320.349 20.2732C319.596 20.0218 318.757 19.7705 317.919 19.5192C316.999 19.2678 316.077 19.1842 314.988 19.1842C312.642 19.1842 310.883 19.938 309.795 21.3622C308.621 22.7864 308.034 24.7132 308.034 27.0589C308.034 29.572 308.537 31.4989 309.626 32.923C310.715 34.2634 312.558 35.0174 315.239 35.0174C316.161 35.0174 317.249 34.9336 318.338 34.7661C319.427 34.5984 320.432 34.3471 321.354 33.9282L322.443 40.3789C321.521 40.7977 320.349 41.1327 319.01 41.3841C317.669 41.6354 316.077 41.8029 314.486 41.8029C311.972 41.8029 309.709 41.3841 307.867 40.6301C306.024 39.8762 304.516 38.8709 303.343 37.5306C302.171 36.1902 301.333 34.6822 300.747 32.923C300.16 31.1637 299.908 29.2369 299.908 27.1425Z" fill="#0E90CF"/>
<path d="M336.435 12.4822C338.782 12.4822 340.707 12.7335 342.3 13.3199C343.892 13.9063 345.064 14.5765 346.07 15.5818C346.991 16.5871 347.661 17.76 348.08 19.1841C348.499 20.6083 348.666 22.2 348.666 23.8753V40.295C347.494 40.5464 345.986 40.7977 343.975 41.1327C341.965 41.4679 339.535 41.6354 336.688 41.6354C334.844 41.6354 333.252 41.4679 331.744 41.1327C330.236 40.7977 328.98 40.295 327.975 39.541C326.97 38.787 326.132 37.8655 325.545 36.6927C324.959 35.5198 324.707 34.0958 324.707 32.4203C324.707 30.8287 325.043 29.4045 325.712 28.3153C326.382 27.1425 327.22 26.3048 328.309 25.6346C329.398 24.9645 330.656 24.4618 332.08 24.2105C333.503 23.8753 334.927 23.7916 336.519 23.7916C337.524 23.7916 338.446 23.8755 339.284 23.9591C340.121 24.043 340.707 24.1266 341.21 24.2943V23.5403C341.21 22.2 340.792 21.1108 339.954 20.2731C339.116 19.4355 337.693 19.0165 335.682 19.0165C334.341 19.0165 333 19.1003 331.744 19.2678C330.403 19.4355 329.315 19.7705 328.309 20.1056L327.304 13.7388C327.723 13.5712 328.309 13.4875 329.064 13.3199C329.734 13.1524 330.487 12.9848 331.325 12.901C332.164 12.8173 333 12.6497 333.922 12.566C334.593 12.4822 335.514 12.4822 336.435 12.4822ZM337.105 35.6037C337.86 35.6037 338.613 35.6037 339.368 35.5198C340.038 35.5198 340.624 35.4362 341.043 35.3523V29.3207C340.707 29.2368 340.205 29.1532 339.618 29.0693C338.949 28.9857 338.363 28.9857 337.86 28.9857C337.105 28.9857 336.435 29.0693 335.766 29.1532C335.096 29.2368 334.508 29.4045 334.006 29.6558C333.503 29.9072 333.085 30.2422 332.833 30.661C332.583 31.08 332.414 31.5825 332.414 32.2527C332.414 33.5093 332.833 34.3472 333.672 34.8497C334.508 35.3523 335.597 35.6037 337.105 35.6037Z" fill="#0E90CF"/>
<path d="M380.333 40.2113C379.662 40.4626 378.825 40.6301 377.904 40.7978C376.982 40.9653 376.06 41.1328 374.971 41.3004C373.882 41.4679 372.96 41.5516 371.872 41.6355C370.866 41.7193 369.861 41.803 368.856 41.803C366.594 41.803 364.5 41.4679 362.74 40.7978C360.898 40.1276 359.39 39.1223 358.216 37.8656C356.96 36.6091 356.038 35.1011 355.369 33.3419C354.699 31.5826 354.363 29.5721 354.363 27.3102C354.363 25.0482 354.614 23.0377 355.2 21.1947C355.788 19.3517 356.541 17.8437 357.63 16.5872C358.719 15.3306 359.976 14.3253 361.568 13.6551C363.076 12.9849 364.834 12.6498 366.845 12.6498C367.934 12.6498 368.939 12.7336 369.777 12.9849C370.616 13.2362 371.536 13.4876 372.374 13.9064V1.2566L380.25 0V40.2113H380.333ZM362.489 26.9751C362.489 29.4046 363.076 31.4151 364.164 32.8393C365.253 34.3471 366.928 35.1011 369.024 35.1011C369.694 35.1011 370.364 35.1011 370.95 35.0174C371.536 34.9336 372.039 34.9336 372.458 34.8498V20.4407C371.955 20.1057 371.285 19.8544 370.532 19.6031C369.694 19.3517 368.939 19.2679 368.102 19.2679C364.332 19.3517 362.489 21.8649 362.489 26.9751Z" fill="#0E90CF"/>
<path d="M386.449 27.3938C386.449 24.8806 386.867 22.7863 387.622 20.8595C388.375 19.0165 389.38 17.4248 390.638 16.252C391.893 14.9954 393.318 14.0739 394.909 13.4037C396.501 12.7335 398.178 12.4822 399.853 12.4822C403.79 12.4822 406.973 13.655 409.235 16.0845C411.497 18.514 412.67 22.0323 412.67 26.8075C412.67 27.2263 412.67 27.8128 412.586 28.3153C412.586 28.9018 412.503 29.3207 412.503 29.7395H394.575C394.742 31.3312 395.496 32.6717 396.837 33.5932C398.178 34.5147 400.02 35.0173 402.282 35.0173C403.705 35.0173 405.13 34.8497 406.554 34.5983C407.979 34.3472 409.068 34.012 409.989 33.5932L411.078 40.0437C410.659 40.295 410.073 40.4625 409.403 40.7139C408.732 40.9652 407.895 41.1327 407.057 41.3004C406.219 41.4679 405.297 41.5517 404.293 41.7192C403.288 41.8029 402.282 41.8867 401.361 41.8867C398.847 41.8867 396.67 41.5517 394.826 40.7977C392.982 40.0437 391.391 39.0384 390.218 37.7818C389.046 36.5252 388.124 34.9335 387.538 33.1743C386.952 31.415 386.449 29.4045 386.449 27.3938ZM405.046 24.378C405.046 23.7078 404.879 23.0376 404.711 22.4513C404.544 21.781 404.208 21.2785 403.79 20.7758C403.371 20.2731 402.869 19.8543 402.282 19.5191C401.695 19.1841 400.858 19.0165 399.936 19.0165C399.014 19.0165 398.261 19.1841 397.675 19.4355C397.004 19.7705 396.501 20.1056 396.082 20.6083C395.664 21.1108 395.329 21.6973 395.078 22.3675C394.826 23.0376 394.659 23.7078 394.575 24.378H405.046Z" fill="#0E90CF"/>
<path d="M434.116 26.305C434.116 23.7918 433.782 21.9488 433.111 20.8597C432.441 19.7707 431.352 19.268 429.761 19.268C429.258 19.268 428.755 19.268 428.253 19.3518C427.75 19.4357 427.247 19.4357 426.745 19.5193V41.0492H418.869V14.1579C419.54 13.9903 420.294 13.8228 421.215 13.5714C422.137 13.4039 423.059 13.2364 424.064 13.0688C425.07 12.9013 426.075 12.8175 427.164 12.7337C428.253 12.6499 429.258 12.5662 430.263 12.5662C432.274 12.5662 433.949 12.8175 435.205 13.3201C436.462 13.8228 437.468 14.4092 438.305 15.1632C439.478 14.3254 440.734 13.739 442.242 13.2363C443.75 12.8175 445.091 12.5662 446.264 12.5662C448.525 12.5662 450.285 12.9013 451.793 13.4877C453.217 14.0741 454.39 14.9956 455.228 16.0847C456.065 17.2575 456.651 18.5978 456.987 20.1058C457.322 21.6137 457.489 23.373 457.489 25.2997V41.0492H449.615V26.305C449.615 23.7918 449.28 21.9488 448.61 20.8597C447.939 19.7707 446.85 19.268 445.258 19.268C444.839 19.268 444.253 19.3518 443.5 19.6032C442.745 19.8545 442.075 20.1058 441.656 20.4408C441.908 21.2787 442.075 22.1163 442.159 23.0378C442.242 23.9593 442.242 24.8809 442.242 25.97V41.2167H434.368V26.305H434.116Z" fill="#0E90CF"/>
<path d="M488.484 13.2361C486.892 18.5976 485.217 23.6241 483.457 28.3153C481.699 33.0066 479.855 37.6142 477.761 41.9705C477.008 43.5622 476.253 44.9025 475.5 45.9915C474.745 47.0807 473.908 48.0022 473.07 48.7562C472.148 49.51 471.143 50.0127 470.054 50.3478C468.965 50.6829 467.624 50.8505 466.116 50.8505C464.86 50.8505 463.771 50.7667 462.682 50.5154C461.677 50.264 460.755 50.0127 460.084 49.7613L461.425 43.4783C462.263 43.7297 462.933 43.981 463.603 44.0648C464.274 44.1485 464.944 44.2323 465.613 44.2323C467.038 44.2323 468.127 43.8135 468.881 43.0595C469.635 42.3055 470.304 41.2165 470.807 39.8762C468.965 36.3576 467.205 32.3365 465.363 27.9803C463.519 23.5403 461.844 18.5976 460.253 13.1523H468.629C468.965 14.4927 469.384 16.0006 469.887 17.6761C470.389 19.2678 470.892 20.9433 471.395 22.5349C471.897 24.2104 472.484 25.8021 472.986 27.3101C473.572 28.9018 474.075 30.2421 474.578 31.5825C474.997 30.326 475.5 28.9018 476.002 27.3101C476.505 25.7184 477.008 24.1266 477.425 22.5349C477.928 20.8594 478.347 19.2678 478.85 17.6761C479.269 16.0844 479.688 14.5765 480.024 13.1523H488.484V13.2361Z" fill="#0E90CF"/>
</g>
<defs>
<clipPath id="clip0_663_716">
<rect width="488.485" height="52" fill="white"/>
</clipPath>
</defs>
</svg>
