<svg width="450" height="300" viewBox="0 0 450 300" fill="none" xmlns="http://www.w3.org/2000/svg">
<rect opacity="0.5" width="450" height="300" rx="12" fill="#333333"/>
<path d="M220.838 226.67C220.24 226.67 219.75 226.489 219.366 226.126C218.982 225.742 218.79 225.273 218.79 224.718V206.158H222.95V224.718C222.95 225.273 222.747 225.742 222.342 226.126C221.958 226.489 221.456 226.67 220.838 226.67ZM213.766 207.95C213.211 207.95 212.742 207.78 212.358 207.438C211.995 207.097 211.814 206.649 211.814 206.094C211.814 205.54 211.995 205.102 212.358 204.782C212.742 204.441 213.211 204.27 213.766 204.27H227.974C228.528 204.27 228.987 204.441 229.35 204.782C229.734 205.124 229.926 205.572 229.926 206.126C229.926 206.681 229.734 207.129 229.35 207.47C228.987 207.79 228.528 207.95 227.974 207.95H213.766ZM241.665 226.99C239.852 226.99 238.273 226.617 236.929 225.87C235.606 225.102 234.582 224.068 233.857 222.766C233.153 221.465 232.801 219.993 232.801 218.35C232.801 216.43 233.185 214.798 233.953 213.454C234.742 212.089 235.766 211.044 237.025 210.318C238.284 209.593 239.617 209.23 241.025 209.23C242.113 209.23 243.137 209.454 244.097 209.902C245.078 210.35 245.942 210.969 246.689 211.758C247.436 212.526 248.022 213.422 248.449 214.446C248.897 215.47 249.121 216.558 249.121 217.71C249.1 218.222 248.897 218.638 248.513 218.958C248.129 219.278 247.681 219.438 247.169 219.438H234.945L233.985 216.238H245.729L245.025 216.878V216.014C244.982 215.396 244.758 214.841 244.353 214.35C243.969 213.86 243.478 213.476 242.881 213.198C242.305 212.9 241.686 212.75 241.025 212.75C240.385 212.75 239.788 212.836 239.233 213.006C238.678 213.177 238.198 213.465 237.793 213.87C237.388 214.276 237.068 214.82 236.833 215.502C236.598 216.185 236.481 217.049 236.481 218.094C236.481 219.246 236.716 220.228 237.185 221.038C237.676 221.828 238.294 222.436 239.041 222.862C239.809 223.268 240.62 223.47 241.473 223.47C242.262 223.47 242.892 223.406 243.361 223.278C243.83 223.15 244.204 223.001 244.481 222.83C244.78 222.638 245.046 222.478 245.281 222.35C245.665 222.158 246.028 222.062 246.369 222.062C246.838 222.062 247.222 222.222 247.521 222.542C247.841 222.862 248.001 223.236 248.001 223.662C248.001 224.238 247.702 224.761 247.105 225.23C246.55 225.7 245.772 226.116 244.769 226.478C243.766 226.82 242.732 226.99 241.665 226.99ZM264.572 209.23C265.788 209.23 266.844 209.358 267.74 209.614C268.657 209.87 269.361 210.233 269.852 210.702C270.364 211.15 270.62 211.694 270.62 212.334C270.62 212.761 270.492 213.166 270.236 213.55C269.98 213.913 269.607 214.094 269.116 214.094C268.775 214.094 268.487 214.052 268.252 213.966C268.039 213.86 267.847 213.732 267.676 213.582C267.505 213.433 267.303 213.294 267.068 213.166C266.855 213.038 266.524 212.942 266.076 212.878C265.649 212.793 265.329 212.75 265.116 212.75C264.028 212.75 263.1 212.985 262.332 213.454C261.585 213.924 261.009 214.564 260.604 215.374C260.199 216.164 259.996 217.081 259.996 218.126C259.996 219.15 260.199 220.068 260.604 220.878C261.031 221.668 261.607 222.297 262.332 222.766C263.079 223.236 263.932 223.47 264.892 223.47C265.425 223.47 265.884 223.438 266.268 223.374C266.652 223.31 266.972 223.214 267.228 223.086C267.527 222.916 267.793 222.734 268.028 222.542C268.263 222.35 268.615 222.254 269.084 222.254C269.639 222.254 270.065 222.436 270.364 222.798C270.663 223.14 270.812 223.566 270.812 224.078C270.812 224.612 270.513 225.102 269.916 225.55C269.319 225.977 268.529 226.329 267.548 226.606C266.588 226.862 265.543 226.99 264.412 226.99C262.727 226.99 261.265 226.606 260.028 225.838C258.791 225.049 257.831 223.982 257.148 222.638C256.487 221.294 256.156 219.79 256.156 218.126C256.156 216.377 256.508 214.841 257.212 213.518C257.937 212.174 258.929 211.129 260.188 210.382C261.468 209.614 262.929 209.23 264.572 209.23ZM287.053 209.23C288.589 209.23 289.752 209.561 290.541 210.222C291.352 210.884 291.906 211.769 292.205 212.878C292.504 213.966 292.653 215.182 292.653 216.526V224.718C292.653 225.273 292.472 225.742 292.109 226.126C291.746 226.489 291.288 226.67 290.733 226.67C290.178 226.67 289.72 226.489 289.357 226.126C288.994 225.742 288.813 225.273 288.813 224.718V216.526C288.813 215.822 288.728 215.193 288.557 214.638C288.386 214.062 288.077 213.604 287.629 213.262C287.181 212.921 286.541 212.75 285.709 212.75C284.898 212.75 284.205 212.921 283.629 213.262C283.053 213.604 282.616 214.062 282.317 214.638C282.04 215.193 281.901 215.822 281.901 216.526V224.718C281.901 225.273 281.72 225.742 281.357 226.126C280.994 226.489 280.536 226.67 279.981 226.67C279.426 226.67 278.968 226.489 278.605 226.126C278.242 225.742 278.061 225.273 278.061 224.718V204.942C278.061 204.388 278.242 203.929 278.605 203.566C278.968 203.182 279.426 202.99 279.981 202.99C280.536 202.99 280.994 203.182 281.357 203.566C281.72 203.929 281.901 204.388 281.901 204.942V212.878L281.421 212.782C281.613 212.42 281.88 212.036 282.221 211.63C282.562 211.204 282.978 210.809 283.469 210.446C283.96 210.084 284.504 209.796 285.101 209.582C285.698 209.348 286.349 209.23 287.053 209.23ZM310.443 209.23C312.022 209.23 313.216 209.561 314.027 210.222C314.859 210.884 315.424 211.769 315.723 212.878C316.043 213.966 316.203 215.182 316.203 216.526V224.718C316.203 225.273 316.022 225.742 315.659 226.126C315.296 226.489 314.838 226.67 314.283 226.67C313.728 226.67 313.27 226.489 312.907 226.126C312.544 225.742 312.363 225.273 312.363 224.718V216.526C312.363 215.822 312.267 215.193 312.075 214.638C311.904 214.062 311.584 213.604 311.115 213.262C310.646 212.921 309.974 212.75 309.099 212.75C308.246 212.75 307.52 212.921 306.923 213.262C306.347 213.604 305.899 214.062 305.579 214.638C305.28 215.193 305.131 215.822 305.131 216.526V224.718C305.131 225.273 304.95 225.742 304.587 226.126C304.224 226.489 303.766 226.67 303.211 226.67C302.656 226.67 302.198 226.489 301.835 226.126C301.472 225.742 301.291 225.273 301.291 224.718V211.502C301.291 210.948 301.472 210.489 301.835 210.126C302.198 209.742 302.656 209.55 303.211 209.55C303.766 209.55 304.224 209.742 304.587 210.126C304.95 210.489 305.131 210.948 305.131 211.502V212.878L304.651 212.782C304.843 212.42 305.12 212.036 305.483 211.63C305.846 211.204 306.272 210.809 306.763 210.446C307.254 210.084 307.808 209.796 308.427 209.582C309.046 209.348 309.718 209.23 310.443 209.23ZM341.442 218.126C341.442 219.876 341.047 221.422 340.258 222.766C339.49 224.089 338.444 225.124 337.122 225.87C335.82 226.617 334.359 226.99 332.738 226.99C331.116 226.99 329.644 226.617 328.322 225.87C327.02 225.124 325.975 224.089 325.186 222.766C324.418 221.422 324.034 219.876 324.034 218.126C324.034 216.377 324.418 214.841 325.186 213.518C325.975 212.174 327.02 211.129 328.322 210.382C329.644 209.614 331.116 209.23 332.738 209.23C334.359 209.23 335.82 209.614 337.122 210.382C338.444 211.129 339.49 212.174 340.258 213.518C341.047 214.841 341.442 216.377 341.442 218.126ZM337.602 218.126C337.602 217.038 337.378 216.1 336.93 215.31C336.503 214.5 335.916 213.87 335.17 213.422C334.444 212.974 333.634 212.75 332.738 212.75C331.842 212.75 331.02 212.974 330.274 213.422C329.548 213.87 328.962 214.5 328.514 215.31C328.087 216.1 327.874 217.038 327.874 218.126C327.874 219.193 328.087 220.132 328.514 220.942C328.962 221.732 329.548 222.35 330.274 222.798C331.02 223.246 331.842 223.47 332.738 223.47C333.634 223.47 334.444 223.246 335.17 222.798C335.916 222.35 336.503 221.732 336.93 220.942C337.378 220.132 337.602 219.193 337.602 218.126ZM353.442 224.718C353.442 225.273 353.25 225.742 352.866 226.126C352.504 226.489 352.045 226.67 351.49 226.67C350.957 226.67 350.509 226.489 350.146 226.126C349.784 225.742 349.602 225.273 349.602 224.718V204.942C349.602 204.388 349.784 203.929 350.146 203.566C350.53 203.182 351 202.99 351.554 202.99C352.109 202.99 352.557 203.182 352.898 203.566C353.261 203.929 353.442 204.388 353.442 204.942V224.718ZM378.683 218.126C378.683 219.876 378.288 221.422 377.499 222.766C376.731 224.089 375.685 225.124 374.363 225.87C373.061 226.617 371.6 226.99 369.979 226.99C368.357 226.99 366.885 226.617 365.563 225.87C364.261 225.124 363.216 224.089 362.427 222.766C361.659 221.422 361.275 219.876 361.275 218.126C361.275 216.377 361.659 214.841 362.427 213.518C363.216 212.174 364.261 211.129 365.563 210.382C366.885 209.614 368.357 209.23 369.979 209.23C371.6 209.23 373.061 209.614 374.363 210.382C375.685 211.129 376.731 212.174 377.499 213.518C378.288 214.841 378.683 216.377 378.683 218.126ZM374.843 218.126C374.843 217.038 374.619 216.1 374.171 215.31C373.744 214.5 373.157 213.87 372.411 213.422C371.685 212.974 370.875 212.75 369.979 212.75C369.083 212.75 368.261 212.974 367.515 213.422C366.789 213.87 366.203 214.5 365.755 215.31C365.328 216.1 365.115 217.038 365.115 218.126C365.115 219.193 365.328 220.132 365.755 220.942C366.203 221.732 366.789 222.35 367.515 222.798C368.261 223.246 369.083 223.47 369.979 223.47C370.875 223.47 371.685 223.246 372.411 222.798C373.157 222.35 373.744 221.732 374.171 220.942C374.619 220.132 374.843 219.193 374.843 218.126ZM393.628 209.23C394.524 209.23 395.345 209.369 396.092 209.646C396.838 209.924 397.478 210.276 398.012 210.702C398.566 211.129 398.993 211.566 399.292 212.014C399.612 212.441 399.772 212.804 399.772 213.102L398.94 213.518V211.182C398.94 210.628 399.121 210.169 399.484 209.806C399.846 209.422 400.305 209.23 400.86 209.23C401.414 209.23 401.873 209.412 402.236 209.774C402.598 210.137 402.78 210.606 402.78 211.182V225.422C402.78 227.278 402.374 228.761 401.564 229.87C400.774 231.001 399.729 231.812 398.428 232.302C397.126 232.814 395.729 233.07 394.236 233.07C393.809 233.07 393.254 233.017 392.572 232.91C391.889 232.804 391.238 232.676 390.62 232.526C390.001 232.377 389.532 232.238 389.212 232.11C388.572 231.833 388.124 231.481 387.868 231.054C387.633 230.649 387.59 230.212 387.74 229.742C387.932 229.124 388.241 228.697 388.668 228.462C389.094 228.249 389.542 228.228 390.012 228.398C390.225 228.462 390.577 228.59 391.068 228.782C391.558 228.974 392.092 229.145 392.668 229.294C393.265 229.465 393.788 229.55 394.236 229.55C395.836 229.55 397.02 229.23 397.788 228.59C398.556 227.95 398.94 227.065 398.94 225.934V223.15L399.324 223.438C399.324 223.716 399.174 224.057 398.876 224.462C398.598 224.846 398.204 225.23 397.692 225.614C397.201 225.998 396.614 226.329 395.932 226.606C395.249 226.862 394.524 226.99 393.756 226.99C392.241 226.99 390.876 226.617 389.66 225.87C388.444 225.102 387.484 224.057 386.78 222.734C386.076 221.39 385.724 219.854 385.724 218.126C385.724 216.377 386.076 214.841 386.78 213.518C387.484 212.174 388.433 211.129 389.628 210.382C390.822 209.614 392.156 209.23 393.628 209.23ZM394.236 212.75C393.276 212.75 392.433 212.985 391.708 213.454C390.982 213.924 390.417 214.564 390.012 215.374C389.606 216.185 389.404 217.102 389.404 218.126C389.404 219.129 389.606 220.036 390.012 220.846C390.417 221.657 390.982 222.297 391.708 222.766C392.433 223.236 393.276 223.47 394.236 223.47C395.217 223.47 396.07 223.236 396.796 222.766C397.521 222.297 398.086 221.657 398.492 220.846C398.897 220.036 399.1 219.129 399.1 218.126C399.1 217.102 398.897 216.185 398.492 215.374C398.086 214.564 397.521 213.924 396.796 213.454C396.07 212.985 395.217 212.75 394.236 212.75ZM424.114 209.55C424.668 209.55 425.127 209.742 425.49 210.126C425.852 210.489 426.034 210.948 426.034 211.502V225.102C426.034 227.065 425.66 228.622 424.914 229.774C424.188 230.948 423.207 231.79 421.97 232.302C420.732 232.814 419.346 233.07 417.81 233.07C417.127 233.07 416.402 233.017 415.634 232.91C414.866 232.804 414.236 232.644 413.746 232.43C413.106 232.153 412.658 231.801 412.402 231.374C412.167 230.969 412.124 230.532 412.274 230.062C412.466 229.444 412.775 229.017 413.202 228.782C413.628 228.569 414.076 228.548 414.546 228.718C414.887 228.825 415.335 228.985 415.89 229.198C416.444 229.433 417.084 229.55 417.81 229.55C418.791 229.55 419.602 229.412 420.242 229.134C420.903 228.878 421.394 228.43 421.714 227.79C422.055 227.172 422.226 226.318 422.226 225.23V223.086L422.898 223.854C422.535 224.558 422.076 225.145 421.522 225.614C420.988 226.062 420.348 226.404 419.602 226.638C418.855 226.873 418.002 226.99 417.042 226.99C415.911 226.99 414.919 226.734 414.066 226.222C413.234 225.689 412.583 224.964 412.114 224.046C411.644 223.108 411.41 222.041 411.41 220.846V211.502C411.41 210.948 411.591 210.489 411.954 210.126C412.316 209.742 412.775 209.55 413.33 209.55C413.884 209.55 414.343 209.742 414.706 210.126C415.068 210.489 415.25 210.948 415.25 211.502V219.694C415.25 221.081 415.548 222.062 416.146 222.638C416.764 223.193 417.618 223.47 418.706 223.47C419.452 223.47 420.082 223.332 420.594 223.054C421.106 222.756 421.5 222.329 421.778 221.774C422.055 221.198 422.194 220.505 422.194 219.694V211.502C422.194 210.948 422.375 210.489 422.738 210.126C423.1 209.742 423.559 209.55 424.114 209.55Z" fill="white"/>
<path d="M227.378 87.6882C227.933 87.9655 228.253 88.4029 228.338 89.0002C228.445 89.5975 228.296 90.1415 227.89 90.6322C227.613 91.0162 227.25 91.2295 226.802 91.2722C226.376 91.3149 225.938 91.2295 225.49 91.0162C224.978 90.7815 224.434 90.6002 223.858 90.4722C223.304 90.3442 222.717 90.2802 222.098 90.2802C220.946 90.2802 219.912 90.4615 218.994 90.8242C218.098 91.1869 217.33 91.7095 216.69 92.3922C216.05 93.0535 215.56 93.8429 215.218 94.7602C214.898 95.6775 214.738 96.6909 214.738 97.8002C214.738 99.1015 214.92 100.232 215.282 101.192C215.666 102.152 216.189 102.952 216.85 103.592C217.512 104.232 218.29 104.712 219.186 105.032C220.082 105.331 221.053 105.48 222.098 105.48C222.674 105.48 223.25 105.427 223.826 105.32C224.402 105.213 224.957 105.021 225.49 104.744C225.938 104.531 226.376 104.456 226.802 104.52C227.25 104.584 227.624 104.808 227.922 105.192C228.349 105.725 228.498 106.28 228.37 106.856C228.264 107.411 227.944 107.816 227.41 108.072C226.856 108.349 226.28 108.584 225.682 108.776C225.106 108.947 224.52 109.075 223.922 109.16C223.325 109.267 222.717 109.32 222.098 109.32C220.562 109.32 219.101 109.075 217.714 108.584C216.349 108.093 215.122 107.368 214.034 106.408C212.968 105.448 212.125 104.253 211.506 102.824C210.888 101.373 210.578 99.6989 210.578 97.8002C210.578 96.1575 210.856 94.6429 211.41 93.2562C211.986 91.8695 212.786 90.6749 213.81 89.6722C214.856 88.6482 216.082 87.8589 217.49 87.3042C218.898 86.7282 220.434 86.4402 222.098 86.4402C223.037 86.4402 223.954 86.5469 224.85 86.7602C225.746 86.9735 226.589 87.2829 227.378 87.6882ZM252.529 100.456C252.529 102.205 252.134 103.752 251.345 105.096C250.577 106.419 249.532 107.453 248.209 108.2C246.908 108.947 245.446 109.32 243.825 109.32C242.204 109.32 240.732 108.947 239.409 108.2C238.108 107.453 237.062 106.419 236.273 105.096C235.505 103.752 235.121 102.205 235.121 100.456C235.121 98.7069 235.505 97.1709 236.273 95.8482C237.062 94.5042 238.108 93.4589 239.409 92.7122C240.732 91.9442 242.204 91.5602 243.825 91.5602C245.446 91.5602 246.908 91.9442 248.209 92.7122C249.532 93.4589 250.577 94.5042 251.345 95.8482C252.134 97.1709 252.529 98.7069 252.529 100.456ZM248.689 100.456C248.689 99.3682 248.465 98.4295 248.017 97.6402C247.59 96.8295 247.004 96.2002 246.257 95.7522C245.532 95.3042 244.721 95.0802 243.825 95.0802C242.929 95.0802 242.108 95.3042 241.361 95.7522C240.636 96.2002 240.049 96.8295 239.601 97.6402C239.174 98.4295 238.961 99.3682 238.961 100.456C238.961 101.523 239.174 102.461 239.601 103.272C240.049 104.061 240.636 104.68 241.361 105.128C242.108 105.576 242.929 105.8 243.825 105.8C244.721 105.8 245.532 105.576 246.257 105.128C247.004 104.68 247.59 104.061 248.017 103.272C248.465 102.461 248.689 101.523 248.689 100.456ZM269.522 91.5602C271.1 91.5602 272.295 91.8909 273.106 92.5522C273.938 93.2135 274.503 94.0989 274.802 95.2082C275.122 96.2962 275.282 97.5122 275.282 98.8562V107.048C275.282 107.603 275.1 108.072 274.738 108.456C274.375 108.819 273.916 109 273.362 109C272.807 109 272.348 108.819 271.986 108.456C271.623 108.072 271.442 107.603 271.442 107.048V98.8562C271.442 98.1522 271.346 97.5229 271.154 96.9682C270.983 96.3922 270.663 95.9335 270.194 95.5922C269.724 95.2509 269.052 95.0802 268.178 95.0802C267.324 95.0802 266.599 95.2509 266.002 95.5922C265.426 95.9335 264.978 96.3922 264.658 96.9682C264.359 97.5229 264.21 98.1522 264.21 98.8562V107.048C264.21 107.603 264.028 108.072 263.666 108.456C263.303 108.819 262.844 109 262.29 109C261.735 109 261.276 108.819 260.914 108.456C260.551 108.072 260.37 107.603 260.37 107.048V93.8322C260.37 93.2775 260.551 92.8189 260.914 92.4562C261.276 92.0722 261.735 91.8802 262.29 91.8802C262.844 91.8802 263.303 92.0722 263.666 92.4562C264.028 92.8189 264.21 93.2775 264.21 93.8322V95.2082L263.73 95.1122C263.922 94.7495 264.199 94.3655 264.562 93.9602C264.924 93.5335 265.351 93.1389 265.842 92.7762C266.332 92.4135 266.887 92.1255 267.506 91.9122C268.124 91.6775 268.796 91.5602 269.522 91.5602ZM293.064 91.5602C294.643 91.5602 295.837 91.8909 296.648 92.5522C297.48 93.2135 298.045 94.0989 298.344 95.2082C298.664 96.2962 298.824 97.5122 298.824 98.8562V107.048C298.824 107.603 298.643 108.072 298.28 108.456C297.917 108.819 297.459 109 296.904 109C296.349 109 295.891 108.819 295.528 108.456C295.165 108.072 294.984 107.603 294.984 107.048V98.8562C294.984 98.1522 294.888 97.5229 294.696 96.9682C294.525 96.3922 294.205 95.9335 293.736 95.5922C293.267 95.2509 292.595 95.0802 291.72 95.0802C290.867 95.0802 290.141 95.2509 289.544 95.5922C288.968 95.9335 288.52 96.3922 288.2 96.9682C287.901 97.5229 287.752 98.1522 287.752 98.8562V107.048C287.752 107.603 287.571 108.072 287.208 108.456C286.845 108.819 286.387 109 285.832 109C285.277 109 284.819 108.819 284.456 108.456C284.093 108.072 283.912 107.603 283.912 107.048V93.8322C283.912 93.2775 284.093 92.8189 284.456 92.4562C284.819 92.0722 285.277 91.8802 285.832 91.8802C286.387 91.8802 286.845 92.0722 287.208 92.4562C287.571 92.8189 287.752 93.2775 287.752 93.8322V95.2082L287.272 95.1122C287.464 94.7495 287.741 94.3655 288.104 93.9602C288.467 93.5335 288.893 93.1389 289.384 92.7762C289.875 92.4135 290.429 92.1255 291.048 91.9122C291.667 91.6775 292.339 91.5602 293.064 91.5602ZM315.519 109.32C313.705 109.32 312.127 108.947 310.783 108.2C309.46 107.432 308.436 106.397 307.711 105.096C307.007 103.795 306.655 102.323 306.655 100.68C306.655 98.7602 307.039 97.1282 307.807 95.7842C308.596 94.4189 309.62 93.3735 310.879 92.6482C312.137 91.9229 313.471 91.5602 314.879 91.5602C315.967 91.5602 316.991 91.7842 317.951 92.2322C318.932 92.6802 319.796 93.2989 320.543 94.0882C321.289 94.8562 321.876 95.7522 322.303 96.7762C322.751 97.8002 322.975 98.8882 322.975 100.04C322.953 100.552 322.751 100.968 322.367 101.288C321.983 101.608 321.535 101.768 321.023 101.768H308.799L307.839 98.5682H319.583L318.879 99.2082V98.3442C318.836 97.7255 318.612 97.1709 318.207 96.6802C317.823 96.1895 317.332 95.8055 316.735 95.5282C316.159 95.2295 315.54 95.0802 314.879 95.0802C314.239 95.0802 313.641 95.1655 313.087 95.3362C312.532 95.5069 312.052 95.7949 311.647 96.2002C311.241 96.6055 310.921 97.1495 310.687 97.8322C310.452 98.5149 310.335 99.3789 310.335 100.424C310.335 101.576 310.569 102.557 311.039 103.368C311.529 104.157 312.148 104.765 312.895 105.192C313.663 105.597 314.473 105.8 315.327 105.8C316.116 105.8 316.745 105.736 317.215 105.608C317.684 105.48 318.057 105.331 318.335 105.16C318.633 104.968 318.9 104.808 319.135 104.68C319.519 104.488 319.881 104.392 320.223 104.392C320.692 104.392 321.076 104.552 321.375 104.872C321.695 105.192 321.855 105.565 321.855 105.992C321.855 106.568 321.556 107.091 320.959 107.56C320.404 108.029 319.625 108.445 318.623 108.808C317.62 109.149 316.585 109.32 315.519 109.32ZM338.426 91.5602C339.642 91.5602 340.698 91.6882 341.594 91.9442C342.511 92.2002 343.215 92.5629 343.706 93.0322C344.218 93.4802 344.474 94.0242 344.474 94.6642C344.474 95.0909 344.346 95.4962 344.09 95.8802C343.834 96.2429 343.46 96.4242 342.97 96.4242C342.628 96.4242 342.34 96.3815 342.106 96.2962C341.892 96.1895 341.7 96.0615 341.53 95.9122C341.359 95.7629 341.156 95.6242 340.922 95.4962C340.708 95.3682 340.378 95.2722 339.93 95.2082C339.503 95.1229 339.183 95.0802 338.97 95.0802C337.882 95.0802 336.954 95.3149 336.186 95.7842C335.439 96.2535 334.863 96.8935 334.458 97.7042C334.052 98.4935 333.85 99.4109 333.85 100.456C333.85 101.48 334.052 102.397 334.458 103.208C334.884 103.997 335.46 104.627 336.186 105.096C336.932 105.565 337.786 105.8 338.746 105.8C339.279 105.8 339.738 105.768 340.122 105.704C340.506 105.64 340.826 105.544 341.082 105.416C341.38 105.245 341.647 105.064 341.882 104.872C342.116 104.68 342.468 104.584 342.938 104.584C343.492 104.584 343.919 104.765 344.218 105.128C344.516 105.469 344.666 105.896 344.666 106.408C344.666 106.941 344.367 107.432 343.77 107.88C343.172 108.307 342.383 108.659 341.402 108.936C340.442 109.192 339.396 109.32 338.266 109.32C336.58 109.32 335.119 108.936 333.882 108.168C332.644 107.379 331.684 106.312 331.002 104.968C330.34 103.624 330.01 102.12 330.01 100.456C330.01 98.7069 330.362 97.1709 331.066 95.8482C331.791 94.5042 332.783 93.4589 334.042 92.7122C335.322 91.9442 336.783 91.5602 338.426 91.5602ZM352.107 92.2002H359.691C360.203 92.2002 360.629 92.3709 360.971 92.7122C361.312 93.0535 361.483 93.4802 361.483 93.9922C361.483 94.4829 361.312 94.8989 360.971 95.2402C360.629 95.5602 360.203 95.7202 359.691 95.7202H352.107C351.595 95.7202 351.168 95.5495 350.827 95.2082C350.485 94.8669 350.315 94.4402 350.315 93.9282C350.315 93.4375 350.485 93.0322 350.827 92.7122C351.168 92.3709 351.595 92.2002 352.107 92.2002ZM355.531 88.2002C356.085 88.2002 356.533 88.3922 356.875 88.7762C357.237 89.1389 357.419 89.5975 357.419 90.1522V104.392C357.419 104.691 357.472 104.936 357.579 105.128C357.707 105.32 357.867 105.459 358.059 105.544C358.272 105.629 358.496 105.672 358.731 105.672C358.987 105.672 359.221 105.629 359.435 105.544C359.648 105.437 359.893 105.384 360.171 105.384C360.469 105.384 360.736 105.523 360.971 105.8C361.227 106.077 361.355 106.461 361.355 106.952C361.355 107.549 361.024 108.04 360.363 108.424C359.723 108.808 359.029 109 358.283 109C357.835 109 357.333 108.968 356.779 108.904C356.245 108.819 355.733 108.637 355.243 108.36C354.773 108.061 354.379 107.613 354.059 107.016C353.739 106.419 353.579 105.597 353.579 104.552V90.1522C353.579 89.5975 353.76 89.1389 354.123 88.7762C354.507 88.3922 354.976 88.2002 355.531 88.2002ZM373.104 107.048C373.104 107.603 372.923 108.072 372.56 108.456C372.198 108.819 371.739 109 371.184 109C370.63 109 370.171 108.819 369.808 108.456C369.446 108.072 369.264 107.603 369.264 107.048V93.8322C369.264 93.2775 369.446 92.8189 369.808 92.4562C370.171 92.0722 370.63 91.8802 371.184 91.8802C371.739 91.8802 372.198 92.0722 372.56 92.4562C372.923 92.8189 373.104 93.2775 373.104 93.8322V107.048ZM371.152 89.8002C370.427 89.8002 369.915 89.6829 369.616 89.4482C369.318 89.2135 369.168 88.7975 369.168 88.2002V87.5922C369.168 86.9735 369.328 86.5575 369.648 86.3442C369.99 86.1095 370.502 85.9922 371.184 85.9922C371.931 85.9922 372.454 86.1095 372.752 86.3442C373.051 86.5789 373.2 86.9949 373.2 87.5922V88.2002C373.2 88.8189 373.04 89.2455 372.72 89.4802C372.4 89.6935 371.878 89.8002 371.152 89.8002ZM390.683 91.5602C392.262 91.5602 393.456 91.8909 394.267 92.5522C395.099 93.2135 395.664 94.0989 395.963 95.2082C396.283 96.2962 396.443 97.5122 396.443 98.8562V107.048C396.443 107.603 396.262 108.072 395.899 108.456C395.536 108.819 395.078 109 394.523 109C393.968 109 393.51 108.819 393.147 108.456C392.784 108.072 392.603 107.603 392.603 107.048V98.8562C392.603 98.1522 392.507 97.5229 392.315 96.9682C392.144 96.3922 391.824 95.9335 391.355 95.5922C390.886 95.2509 390.214 95.0802 389.339 95.0802C388.486 95.0802 387.76 95.2509 387.163 95.5922C386.587 95.9335 386.139 96.3922 385.819 96.9682C385.52 97.5229 385.371 98.1522 385.371 98.8562V107.048C385.371 107.603 385.19 108.072 384.827 108.456C384.464 108.819 384.006 109 383.451 109C382.896 109 382.438 108.819 382.075 108.456C381.712 108.072 381.531 107.603 381.531 107.048V93.8322C381.531 93.2775 381.712 92.8189 382.075 92.4562C382.438 92.0722 382.896 91.8802 383.451 91.8802C384.006 91.8802 384.464 92.0722 384.827 92.4562C385.19 92.8189 385.371 93.2775 385.371 93.8322V95.2082L384.891 95.1122C385.083 94.7495 385.36 94.3655 385.723 93.9602C386.086 93.5335 386.512 93.1389 387.003 92.7762C387.494 92.4135 388.048 92.1255 388.667 91.9122C389.286 91.6775 389.958 91.5602 390.683 91.5602ZM412.177 91.5602C413.073 91.5602 413.895 91.6989 414.641 91.9762C415.388 92.2535 416.028 92.6055 416.561 93.0322C417.116 93.4589 417.543 93.8962 417.841 94.3442C418.161 94.7709 418.321 95.1335 418.321 95.4322L417.489 95.8482V93.5122C417.489 92.9575 417.671 92.4989 418.033 92.1362C418.396 91.7522 418.855 91.5602 419.409 91.5602C419.964 91.5602 420.423 91.7415 420.785 92.1042C421.148 92.4669 421.329 92.9362 421.329 93.5122V107.752C421.329 109.608 420.924 111.091 420.113 112.2C419.324 113.331 418.279 114.141 416.977 114.632C415.676 115.144 414.279 115.4 412.785 115.4C412.359 115.4 411.804 115.347 411.121 115.24C410.439 115.133 409.788 115.005 409.169 114.856C408.551 114.707 408.081 114.568 407.761 114.44C407.121 114.163 406.673 113.811 406.417 113.384C406.183 112.979 406.14 112.541 406.289 112.072C406.481 111.453 406.791 111.027 407.217 110.792C407.644 110.579 408.092 110.557 408.561 110.728C408.775 110.792 409.127 110.92 409.617 111.112C410.108 111.304 410.641 111.475 411.217 111.624C411.815 111.795 412.337 111.88 412.785 111.88C414.385 111.88 415.569 111.56 416.337 110.92C417.105 110.28 417.489 109.395 417.489 108.264V105.48L417.873 105.768C417.873 106.045 417.724 106.387 417.425 106.792C417.148 107.176 416.753 107.56 416.241 107.944C415.751 108.328 415.164 108.659 414.481 108.936C413.799 109.192 413.073 109.32 412.305 109.32C410.791 109.32 409.425 108.947 408.209 108.2C406.993 107.432 406.033 106.387 405.329 105.064C404.625 103.72 404.273 102.184 404.273 100.456C404.273 98.7069 404.625 97.1709 405.329 95.8482C406.033 94.5042 406.983 93.4589 408.177 92.7122C409.372 91.9442 410.705 91.5602 412.177 91.5602ZM412.785 95.0802C411.825 95.0802 410.983 95.3149 410.257 95.7842C409.532 96.2535 408.967 96.8935 408.561 97.7042C408.156 98.5149 407.953 99.4322 407.953 100.456C407.953 101.459 408.156 102.365 408.561 103.176C408.967 103.987 409.532 104.627 410.257 105.096C410.983 105.565 411.825 105.8 412.785 105.8C413.767 105.8 414.62 105.565 415.345 105.096C416.071 104.627 416.636 103.987 417.041 103.176C417.447 102.365 417.649 101.459 417.649 100.456C417.649 99.4322 417.447 98.5149 417.041 97.7042C416.636 96.8935 416.071 96.2535 415.345 95.7842C414.62 95.3149 413.767 95.0802 412.785 95.0802Z" fill="white"/>
<path d="M223.27 125.824C225.318 125.824 226.843 126.304 227.846 127.264C228.848 128.224 229.35 129.642 229.35 131.52C229.35 132.522 229.104 133.408 228.614 134.176C228.123 134.922 227.398 135.509 226.438 135.936C225.478 136.341 224.294 136.544 222.886 136.544L223.014 135.104C223.675 135.104 224.432 135.2 225.286 135.392C226.139 135.562 226.96 135.882 227.75 136.352C228.56 136.8 229.222 137.44 229.734 138.272C230.267 139.082 230.534 140.128 230.534 141.408C230.534 142.816 230.299 143.968 229.83 144.864C229.382 145.76 228.784 146.453 228.038 146.944C227.291 147.434 226.491 147.776 225.638 147.968C224.784 148.138 223.963 148.224 223.174 148.224H215.206C214.651 148.224 214.182 148.042 213.798 147.68C213.435 147.296 213.254 146.826 213.254 146.272V127.776C213.254 127.221 213.435 126.762 213.798 126.4C214.182 126.016 214.651 125.824 215.206 125.824H223.27ZM222.694 129.6H216.998L217.414 129.088V134.88L217.03 134.592H222.79C223.408 134.592 223.963 134.389 224.454 133.984C224.944 133.578 225.19 132.992 225.19 132.224C225.19 131.306 224.955 130.645 224.486 130.24C224.038 129.813 223.44 129.6 222.694 129.6ZM222.95 138.368H217.126L217.414 138.112V144.864L217.094 144.544H223.174C224.155 144.544 224.934 144.288 225.51 143.776C226.086 143.242 226.374 142.453 226.374 141.408C226.374 140.448 226.182 139.754 225.798 139.328C225.414 138.901 224.955 138.634 224.422 138.528C223.888 138.421 223.398 138.368 222.95 138.368ZM251.086 131.104C251.641 131.104 252.1 131.296 252.462 131.68C252.825 132.042 253.006 132.501 253.006 133.056V141.184C253.006 143.445 252.377 145.237 251.118 146.56C249.86 147.882 248.046 148.544 245.678 148.544C243.31 148.544 241.497 147.882 240.238 146.56C239.001 145.237 238.382 143.445 238.382 141.184V133.056C238.382 132.501 238.564 132.042 238.926 131.68C239.289 131.296 239.748 131.104 240.302 131.104C240.857 131.104 241.316 131.296 241.678 131.68C242.041 132.042 242.222 132.501 242.222 133.056V141.184C242.222 142.485 242.51 143.456 243.086 144.096C243.662 144.714 244.526 145.024 245.678 145.024C246.852 145.024 247.726 144.714 248.302 144.096C248.878 143.456 249.166 142.485 249.166 141.184V133.056C249.166 132.501 249.348 132.042 249.71 131.68C250.073 131.296 250.532 131.104 251.086 131.104ZM260.652 145.568C260.438 145.269 260.342 144.885 260.364 144.416C260.385 143.946 260.662 143.541 261.196 143.2C261.537 142.986 261.9 142.901 262.284 142.944C262.668 142.965 263.041 143.157 263.404 143.52C264.022 144.138 264.673 144.618 265.356 144.96C266.038 145.301 266.892 145.472 267.916 145.472C268.236 145.45 268.588 145.408 268.972 145.344C269.356 145.258 269.686 145.088 269.964 144.832C270.262 144.554 270.412 144.138 270.412 143.584C270.412 143.114 270.252 142.741 269.932 142.464C269.612 142.186 269.185 141.952 268.652 141.76C268.14 141.568 267.564 141.386 266.924 141.216C266.262 141.024 265.58 140.81 264.876 140.576C264.193 140.341 263.564 140.042 262.988 139.68C262.412 139.296 261.942 138.794 261.58 138.176C261.217 137.557 261.036 136.778 261.036 135.84C261.036 134.773 261.334 133.866 261.932 133.12C262.529 132.373 263.297 131.797 264.236 131.392C265.196 130.986 266.198 130.784 267.244 130.784C267.905 130.784 268.598 130.869 269.324 131.04C270.049 131.189 270.742 131.445 271.404 131.808C272.065 132.149 272.62 132.608 273.068 133.184C273.302 133.504 273.441 133.888 273.484 134.336C273.526 134.784 273.324 135.189 272.876 135.552C272.556 135.808 272.182 135.925 271.756 135.904C271.329 135.861 270.977 135.712 270.7 135.456C270.337 134.986 269.846 134.613 269.228 134.336C268.63 134.058 267.937 133.92 267.148 133.92C266.828 133.92 266.476 133.962 266.092 134.048C265.729 134.112 265.409 134.272 265.132 134.528C264.854 134.762 264.716 135.146 264.716 135.68C264.716 136.17 264.876 136.565 265.196 136.864C265.516 137.141 265.942 137.376 266.476 137.568C267.03 137.738 267.617 137.909 268.236 138.08C268.876 138.25 269.526 138.453 270.188 138.688C270.849 138.922 271.457 139.232 272.012 139.616C272.566 140 273.014 140.501 273.356 141.12C273.697 141.717 273.868 142.485 273.868 143.424C273.868 144.512 273.548 145.44 272.908 146.208C272.268 146.976 271.468 147.562 270.508 147.968C269.548 148.352 268.566 148.544 267.564 148.544C266.305 148.544 265.046 148.33 263.788 147.904C262.529 147.456 261.484 146.677 260.652 145.568ZM285.177 146.272C285.177 146.826 284.996 147.296 284.633 147.68C284.27 148.042 283.812 148.224 283.257 148.224C282.702 148.224 282.244 148.042 281.881 147.68C281.518 147.296 281.337 146.826 281.337 146.272V133.056C281.337 132.501 281.518 132.042 281.881 131.68C282.244 131.296 282.702 131.104 283.257 131.104C283.812 131.104 284.27 131.296 284.633 131.68C284.996 132.042 285.177 132.501 285.177 133.056V146.272ZM283.225 129.024C282.5 129.024 281.988 128.906 281.689 128.672C281.39 128.437 281.241 128.021 281.241 127.424V126.816C281.241 126.197 281.401 125.781 281.721 125.568C282.062 125.333 282.574 125.216 283.257 125.216C284.004 125.216 284.526 125.333 284.825 125.568C285.124 125.802 285.273 126.218 285.273 126.816V127.424C285.273 128.042 285.113 128.469 284.793 128.704C284.473 128.917 283.95 129.024 283.225 129.024ZM302.756 130.784C304.334 130.784 305.529 131.114 306.34 131.776C307.172 132.437 307.737 133.322 308.036 134.432C308.356 135.52 308.516 136.736 308.516 138.08V146.272C308.516 146.826 308.334 147.296 307.972 147.68C307.609 148.042 307.15 148.224 306.596 148.224C306.041 148.224 305.582 148.042 305.22 147.68C304.857 147.296 304.676 146.826 304.676 146.272V138.08C304.676 137.376 304.58 136.746 304.388 136.192C304.217 135.616 303.897 135.157 303.428 134.816C302.958 134.474 302.286 134.304 301.412 134.304C300.558 134.304 299.833 134.474 299.236 134.816C298.66 135.157 298.212 135.616 297.892 136.192C297.593 136.746 297.444 137.376 297.444 138.08V146.272C297.444 146.826 297.262 147.296 296.9 147.68C296.537 148.042 296.078 148.224 295.524 148.224C294.969 148.224 294.51 148.042 294.148 147.68C293.785 147.296 293.604 146.826 293.604 146.272V133.056C293.604 132.501 293.785 132.042 294.148 131.68C294.51 131.296 294.969 131.104 295.524 131.104C296.078 131.104 296.537 131.296 296.9 131.68C297.262 132.042 297.444 132.501 297.444 133.056V134.432L296.964 134.336C297.156 133.973 297.433 133.589 297.796 133.184C298.158 132.757 298.585 132.362 299.076 132C299.566 131.637 300.121 131.349 300.74 131.136C301.358 130.901 302.03 130.784 302.756 130.784ZM325.21 148.544C323.397 148.544 321.818 148.17 320.474 147.424C319.151 146.656 318.127 145.621 317.402 144.32C316.698 143.018 316.346 141.546 316.346 139.904C316.346 137.984 316.73 136.352 317.498 135.008C318.287 133.642 319.311 132.597 320.57 131.872C321.829 131.146 323.162 130.784 324.57 130.784C325.658 130.784 326.682 131.008 327.642 131.456C328.623 131.904 329.487 132.522 330.234 133.312C330.981 134.08 331.567 134.976 331.994 136C332.442 137.024 332.666 138.112 332.666 139.264C332.645 139.776 332.442 140.192 332.058 140.512C331.674 140.832 331.226 140.992 330.714 140.992H318.49L317.53 137.792H329.274L328.57 138.432V137.568C328.527 136.949 328.303 136.394 327.898 135.904C327.514 135.413 327.023 135.029 326.426 134.752C325.85 134.453 325.231 134.304 324.57 134.304C323.93 134.304 323.333 134.389 322.778 134.56C322.223 134.73 321.743 135.018 321.338 135.424C320.933 135.829 320.613 136.373 320.378 137.056C320.143 137.738 320.026 138.602 320.026 139.648C320.026 140.8 320.261 141.781 320.73 142.592C321.221 143.381 321.839 143.989 322.586 144.416C323.354 144.821 324.165 145.024 325.018 145.024C325.807 145.024 326.437 144.96 326.906 144.832C327.375 144.704 327.749 144.554 328.026 144.384C328.325 144.192 328.591 144.032 328.826 143.904C329.21 143.712 329.573 143.616 329.914 143.616C330.383 143.616 330.767 143.776 331.066 144.096C331.386 144.416 331.546 144.789 331.546 145.216C331.546 145.792 331.247 146.314 330.65 146.784C330.095 147.253 329.317 147.669 328.314 148.032C327.311 148.373 326.277 148.544 325.21 148.544ZM339.509 145.568C339.296 145.269 339.2 144.885 339.221 144.416C339.242 143.946 339.52 143.541 340.053 143.2C340.394 142.986 340.757 142.901 341.141 142.944C341.525 142.965 341.898 143.157 342.261 143.52C342.88 144.138 343.53 144.618 344.213 144.96C344.896 145.301 345.749 145.472 346.773 145.472C347.093 145.45 347.445 145.408 347.829 145.344C348.213 145.258 348.544 145.088 348.821 144.832C349.12 144.554 349.269 144.138 349.269 143.584C349.269 143.114 349.109 142.741 348.789 142.464C348.469 142.186 348.042 141.952 347.509 141.76C346.997 141.568 346.421 141.386 345.781 141.216C345.12 141.024 344.437 140.81 343.733 140.576C343.05 140.341 342.421 140.042 341.845 139.68C341.269 139.296 340.8 138.794 340.437 138.176C340.074 137.557 339.893 136.778 339.893 135.84C339.893 134.773 340.192 133.866 340.789 133.12C341.386 132.373 342.154 131.797 343.093 131.392C344.053 130.986 345.056 130.784 346.101 130.784C346.762 130.784 347.456 130.869 348.181 131.04C348.906 131.189 349.6 131.445 350.261 131.808C350.922 132.149 351.477 132.608 351.925 133.184C352.16 133.504 352.298 133.888 352.341 134.336C352.384 134.784 352.181 135.189 351.733 135.552C351.413 135.808 351.04 135.925 350.613 135.904C350.186 135.861 349.834 135.712 349.557 135.456C349.194 134.986 348.704 134.613 348.085 134.336C347.488 134.058 346.794 133.92 346.005 133.92C345.685 133.92 345.333 133.962 344.949 134.048C344.586 134.112 344.266 134.272 343.989 134.528C343.712 134.762 343.573 135.146 343.573 135.68C343.573 136.17 343.733 136.565 344.053 136.864C344.373 137.141 344.8 137.376 345.333 137.568C345.888 137.738 346.474 137.909 347.093 138.08C347.733 138.25 348.384 138.453 349.045 138.688C349.706 138.922 350.314 139.232 350.869 139.616C351.424 140 351.872 140.501 352.213 141.12C352.554 141.717 352.725 142.485 352.725 143.424C352.725 144.512 352.405 145.44 351.765 146.208C351.125 146.976 350.325 147.562 349.365 147.968C348.405 148.352 347.424 148.544 346.421 148.544C345.162 148.544 343.904 148.33 342.645 147.904C341.386 147.456 340.341 146.677 339.509 145.568ZM359.427 145.568C359.213 145.269 359.117 144.885 359.139 144.416C359.16 143.946 359.437 143.541 359.971 143.2C360.312 142.986 360.675 142.901 361.059 142.944C361.443 142.965 361.816 143.157 362.179 143.52C362.797 144.138 363.448 144.618 364.131 144.96C364.813 145.301 365.667 145.472 366.691 145.472C367.011 145.45 367.363 145.408 367.747 145.344C368.131 145.258 368.461 145.088 368.739 144.832C369.037 144.554 369.187 144.138 369.187 143.584C369.187 143.114 369.027 142.741 368.707 142.464C368.387 142.186 367.96 141.952 367.427 141.76C366.915 141.568 366.339 141.386 365.699 141.216C365.037 141.024 364.355 140.81 363.651 140.576C362.968 140.341 362.339 140.042 361.763 139.68C361.187 139.296 360.717 138.794 360.355 138.176C359.992 137.557 359.811 136.778 359.811 135.84C359.811 134.773 360.109 133.866 360.707 133.12C361.304 132.373 362.072 131.797 363.011 131.392C363.971 130.986 364.973 130.784 366.019 130.784C366.68 130.784 367.373 130.869 368.099 131.04C368.824 131.189 369.517 131.445 370.179 131.808C370.84 132.149 371.395 132.608 371.843 133.184C372.077 133.504 372.216 133.888 372.259 134.336C372.301 134.784 372.099 135.189 371.651 135.552C371.331 135.808 370.957 135.925 370.531 135.904C370.104 135.861 369.752 135.712 369.475 135.456C369.112 134.986 368.621 134.613 368.003 134.336C367.405 134.058 366.712 133.92 365.923 133.92C365.603 133.92 365.251 133.962 364.867 134.048C364.504 134.112 364.184 134.272 363.907 134.528C363.629 134.762 363.491 135.146 363.491 135.68C363.491 136.17 363.651 136.565 363.971 136.864C364.291 137.141 364.717 137.376 365.251 137.568C365.805 137.738 366.392 137.909 367.011 138.08C367.651 138.25 368.301 138.453 368.963 138.688C369.624 138.922 370.232 139.232 370.787 139.616C371.341 140 371.789 140.501 372.131 141.12C372.472 141.717 372.643 142.485 372.643 143.424C372.643 144.512 372.323 145.44 371.683 146.208C371.043 146.976 370.243 147.562 369.283 147.968C368.323 148.352 367.341 148.544 366.339 148.544C365.08 148.544 363.821 148.33 362.563 147.904C361.304 147.456 360.259 146.677 359.427 145.568Z" fill="white"/>
<path d="M220.838 187.447C220.24 187.447 219.75 187.266 219.366 186.903C218.982 186.519 218.79 186.05 218.79 185.495V166.935H222.95V185.495C222.95 186.05 222.747 186.519 222.342 186.903C221.958 187.266 221.456 187.447 220.838 187.447ZM213.766 168.727C213.211 168.727 212.742 168.557 212.358 168.215C211.995 167.874 211.814 167.426 211.814 166.871C211.814 166.317 211.995 165.879 212.358 165.559C212.742 165.218 213.211 165.047 213.766 165.047H227.974C228.528 165.047 228.987 165.218 229.35 165.559C229.734 165.901 229.926 166.349 229.926 166.903C229.926 167.458 229.734 167.906 229.35 168.247C228.987 168.567 228.528 168.727 227.974 168.727H213.766ZM250.209 178.903C250.209 180.653 249.814 182.199 249.025 183.543C248.257 184.866 247.212 185.901 245.889 186.647C244.588 187.394 243.126 187.767 241.505 187.767C239.884 187.767 238.412 187.394 237.089 186.647C235.788 185.901 234.742 184.866 233.953 183.543C233.185 182.199 232.801 180.653 232.801 178.903C232.801 177.154 233.185 175.618 233.953 174.295C234.742 172.951 235.788 171.906 237.089 171.159C238.412 170.391 239.884 170.007 241.505 170.007C243.126 170.007 244.588 170.391 245.889 171.159C247.212 171.906 248.257 172.951 249.025 174.295C249.814 175.618 250.209 177.154 250.209 178.903ZM246.369 178.903C246.369 177.815 246.145 176.877 245.697 176.087C245.27 175.277 244.684 174.647 243.937 174.199C243.212 173.751 242.401 173.527 241.505 173.527C240.609 173.527 239.788 173.751 239.041 174.199C238.316 174.647 237.729 175.277 237.281 176.087C236.854 176.877 236.641 177.815 236.641 178.903C236.641 179.97 236.854 180.909 237.281 181.719C237.729 182.509 238.316 183.127 239.041 183.575C239.788 184.023 240.609 184.247 241.505 184.247C242.401 184.247 243.212 184.023 243.937 183.575C244.684 183.127 245.27 182.509 245.697 181.719C246.145 180.909 246.369 179.97 246.369 178.903Z" fill="white"/>
<g filter="url(#filter0_d_480_33)">
<path fill-rule="evenodd" clip-rule="evenodd" d="M112.836 133.959C112.034 132.415 111.057 131.22 109.905 130.375C108.488 129.161 106.869 128.402 105.048 128.099C103.328 127.694 101.557 127.492 99.7358 127.492C101.557 127.289 103.429 126.682 105.352 125.67C107.274 124.658 108.842 122.989 110.057 120.662C111.372 118.234 112.03 115.046 112.03 111.1C112.03 105.839 110.714 101.842 108.084 99.1099C105.554 96.2768 101.456 94.6579 95.7897 94.2532C94.4743 94.152 92.7036 94.1013 90.4775 94.1013C88.2515 94.0001 85.9243 93.9495 83.4959 93.9495C81.0675 93.8484 78.6896 93.7979 76.3624 93.7979H70.595C68.7737 93.7979 66.9523 93.8484 65.131 93.9495C63.3097 93.9495 61.3367 94.0001 59.2118 94.1013H52.3819C50.1559 94.2025 48.3852 94.6579 47.0698 95.4674C45.8556 96.2769 45.2485 98.1488 45.2485 101.083V163.918C47.3733 164.019 50.1053 164.069 53.4443 164.069C56.8846 164.171 61.1343 164.221 66.1935 164.221H84.4065C85.8499 164.221 87.2729 164.201 88.6757 164.16L94.4479 156.945C92.8754 157.401 91.1472 157.702 89.2633 157.847C86.7338 158.049 84.103 158.15 81.371 158.15H70.8985H64.0686C62.3485 158.049 60.8813 157.998 59.6671 157.998C58.5541 157.897 57.6435 157.847 56.9352 157.847V103.815C56.9352 102.297 57.2893 101.235 57.9976 100.628C58.8071 99.9194 59.7683 99.5652 60.8813 99.5652C62.7026 99.464 64.9287 99.4136 67.5595 99.4136H76.2106C78.5379 99.4136 80.9157 99.464 83.3441 99.5652C85.7725 99.5652 87.9985 99.6665 90.0222 99.8689C93.6648 100.172 96.2956 101.336 97.9145 103.36C99.5335 105.282 100.343 108.014 100.343 111.556C100.343 115.401 99.6853 118.335 98.3699 120.358C97.0545 122.281 95.3344 123.545 93.2095 124.152C91.1858 124.76 88.9598 125.063 86.5314 125.063H60.1225C60.1225 127.087 60.3248 128.605 60.7296 129.616C61.1343 130.628 61.9944 131.134 63.3097 131.134H86.9867C93.3613 131.134 97.611 132.095 99.7358 134.018C101.962 135.839 103.075 139.229 103.075 144.187C103.075 144.912 103.048 145.604 102.994 146.263L112.836 133.959Z" fill="url(#paint0_linear_480_33)"/>
</g>
<g filter="url(#filter1_d_480_33)">
<path d="M47.5995 81.8556L42.5909 50.4128C46.1154 46.8882 50.6603 43.8274 56.2254 41.2304C61.7905 38.4478 67.7266 36.3145 74.0337 34.8305C80.3408 33.161 86.4624 32.3262 92.3985 32.3262C104.642 32.3262 115.308 34.5523 124.398 39.0043C133.673 43.4564 140.815 49.7635 145.823 57.9257C150.832 66.0878 153.336 75.9195 153.336 87.4207C153.336 96.8814 151.203 106.528 146.937 116.359C142.855 126.005 137.476 135.559 130.798 145.019C124.12 154.294 116.885 163.291 109.094 172.01C101.303 180.543 93.697 188.52 86.2769 195.94C78.8568 203.174 72.3642 209.667 66.7991 215.418H130.798C136.363 215.418 140.908 214.676 144.432 213.192C148.142 211.708 151.389 209.203 154.171 205.679C157.139 202.154 160.2 197.517 163.354 191.766H166.136L153.058 231H38.6953V228.217C45.1879 222.281 52.5153 215.047 60.6774 206.514C69.0251 197.795 77.3728 188.427 85.7204 178.41C94.0681 168.393 101.766 158.097 108.816 147.523C115.865 136.95 121.523 126.654 125.789 116.637C130.241 106.435 132.467 97.0669 132.467 88.5337C132.467 73.508 128.85 61.7285 121.615 53.1953C114.566 44.4767 104.827 40.3029 92.3985 40.6739C79.4133 40.8594 69.1179 44.4767 61.5122 51.5258C53.9066 58.5749 50.1965 68.6849 50.382 81.8556H47.5995Z" fill="white"/>
</g>
<g filter="url(#filter2_d_480_33)">
<path d="M118 174.994L124.79 166.506C132.361 189.826 131.292 186.263 133.608 193.032L133.612 193.045C135.005 197.117 136.285 200.857 140.787 188.713L174.018 102H194.807C198.202 102 184.96 105.939 184.96 105.939L145.899 200.335C143.584 206.035 140.787 209.954 135.389 208.707C124.049 206.088 126.839 196.06 118 174.994Z" fill="url(#paint1_linear_480_33)"/>
</g>
<path d="M60.4955 256.78V264.313H66.0868V268.232H47.5156V264.313H52.5078V244.56H45.6771V247.962H42V240.179H156.226L154.222 244.187L60.4955 244.56V253.091V256.78Z" fill="white"/>
<path d="M72.4229 269V248.048H94.5861V251.469H77.1263V256.386H90.4527V259.914H77.1263V265.579H94.7286L96.1539 268.608C96.1539 268.703 95.8333 268.798 95.1919 268.893C94.5505 268.964 93.4458 269 91.878 269H72.4229ZM105.868 269C104.182 269 102.863 268.762 101.913 268.287C100.963 267.812 100.298 267.1 99.9176 266.149C99.5376 265.199 99.3475 264.023 99.3475 262.622V254.676C99.3475 252.395 99.8583 250.721 100.88 249.652C101.901 248.559 103.564 248.013 105.868 248.013H116.594C118.233 248.013 119.48 248.108 120.335 248.298C121.214 248.464 121.653 248.642 121.653 248.832L120.941 251.79C120.537 251.718 119.337 251.647 117.342 251.576C115.37 251.481 112.496 251.433 108.719 251.433H106.902C105.001 251.433 104.051 252.277 104.051 253.963V263.049C104.051 263.857 104.253 264.487 104.657 264.938C105.084 265.366 105.833 265.579 106.902 265.579H108.362C112.306 265.579 115.358 265.544 117.52 265.472C119.705 265.377 121.059 265.282 121.582 265.187L123.043 267.539C123.043 267.658 122.841 267.836 122.437 268.074C122.057 268.311 121.344 268.525 120.299 268.715C119.254 268.905 117.746 269 115.774 269H105.868ZM126.602 269V248.048H131.306V256.742H145.273V248.048H149.977V269H145.273V260.163H131.306V269H126.602Z" fill="white"/>
<defs>
<filter id="filter0_d_480_33" x="45.2485" y="93.7979" width="68.5879" height="71.4238" filterUnits="userSpaceOnUse" color-interpolation-filters="sRGB">
<feFlood flood-opacity="0" result="BackgroundImageFix"/>
<feColorMatrix in="SourceAlpha" type="matrix" values="0 0 0 0 0 0 0 0 0 0 0 0 0 0 0 0 0 0 127 0" result="hardAlpha"/>
<feOffset dx="1" dy="1"/>
<feComposite in2="hardAlpha" operator="out"/>
<feColorMatrix type="matrix" values="0 0 0 0 0 0 0 0 0 0 0 0 0 0 0 0 0 0 1 0"/>
<feBlend mode="normal" in2="BackgroundImageFix" result="effect1_dropShadow_480_33"/>
<feBlend mode="normal" in="SourceGraphic" in2="effect1_dropShadow_480_33" result="shape"/>
</filter>
<filter id="filter1_d_480_33" x="34.6953" y="32.3262" width="131.441" height="198.674" filterUnits="userSpaceOnUse" color-interpolation-filters="sRGB">
<feFlood flood-opacity="0" result="BackgroundImageFix"/>
<feColorMatrix in="SourceAlpha" type="matrix" values="0 0 0 0 0 0 0 0 0 0 0 0 0 0 0 0 0 0 127 0" result="hardAlpha"/>
<feOffset dx="-4"/>
<feComposite in2="hardAlpha" operator="out"/>
<feColorMatrix type="matrix" values="0 0 0 0 0 0 0 0 0 0 0 0 0 0 0 0 0 0 0.25 0"/>
<feBlend mode="normal" in2="BackgroundImageFix" result="effect1_dropShadow_480_33"/>
<feBlend mode="normal" in="SourceGraphic" in2="effect1_dropShadow_480_33" result="shape"/>
</filter>
<filter id="filter2_d_480_33" x="118" y="102" width="78.3638" height="107.939" filterUnits="userSpaceOnUse" color-interpolation-filters="sRGB">
<feFlood flood-opacity="0" result="BackgroundImageFix"/>
<feColorMatrix in="SourceAlpha" type="matrix" values="0 0 0 0 0 0 0 0 0 0 0 0 0 0 0 0 0 0 127 0" result="hardAlpha"/>
<feOffset dx="1" dy="1"/>
<feComposite in2="hardAlpha" operator="out"/>
<feColorMatrix type="matrix" values="0 0 0 0 0 0 0 0 0 0 0 0 0 0 0 0 0 0 1 0"/>
<feBlend mode="normal" in2="BackgroundImageFix" result="effect1_dropShadow_480_33"/>
<feBlend mode="normal" in="SourceGraphic" in2="effect1_dropShadow_480_33" result="shape"/>
</filter>
<linearGradient id="paint0_linear_480_33" x1="79.0424" y1="93.7979" x2="79.0424" y2="164.221" gradientUnits="userSpaceOnUse">
<stop stop-color="#00046B"/>
<stop offset="1" stop-color="#000AFF"/>
</linearGradient>
<linearGradient id="paint1_linear_480_33" x1="156.682" y1="102" x2="156.682" y2="208.939" gradientUnits="userSpaceOnUse">
<stop stop-color="#1A1E8F"/>
<stop offset="1" stop-color="#1A1E8F"/>
</linearGradient>
</defs>
</svg>
