<svg width="407" height="260" viewBox="0 0 407 260" fill="none" xmlns="http://www.w3.org/2000/svg">
<path d="M198.838 206.67C198.24 206.67 197.75 206.489 197.366 206.126C196.982 205.742 196.79 205.273 196.79 204.718V186.158H200.95V204.718C200.95 205.273 200.747 205.742 200.342 206.126C199.958 206.489 199.456 206.67 198.838 206.67ZM191.766 187.95C191.211 187.95 190.742 187.78 190.358 187.438C189.995 187.097 189.814 186.649 189.814 186.094C189.814 185.54 189.995 185.102 190.358 184.782C190.742 184.441 191.211 184.27 191.766 184.27H205.974C206.528 184.27 206.987 184.441 207.35 184.782C207.734 185.124 207.926 185.572 207.926 186.126C207.926 186.681 207.734 187.129 207.35 187.47C206.987 187.79 206.528 187.95 205.974 187.95H191.766ZM219.665 206.99C217.852 206.99 216.273 206.617 214.929 205.87C213.606 205.102 212.582 204.068 211.857 202.766C211.153 201.465 210.801 199.993 210.801 198.35C210.801 196.43 211.185 194.798 211.953 193.454C212.742 192.089 213.766 191.044 215.025 190.318C216.284 189.593 217.617 189.23 219.025 189.23C220.113 189.23 221.137 189.454 222.097 189.902C223.078 190.35 223.942 190.969 224.689 191.758C225.436 192.526 226.022 193.422 226.449 194.446C226.897 195.47 227.121 196.558 227.121 197.71C227.1 198.222 226.897 198.638 226.513 198.958C226.129 199.278 225.681 199.438 225.169 199.438H212.945L211.985 196.238H223.729L223.025 196.878V196.014C222.982 195.396 222.758 194.841 222.353 194.35C221.969 193.86 221.478 193.476 220.881 193.198C220.305 192.9 219.686 192.75 219.025 192.75C218.385 192.75 217.788 192.836 217.233 193.006C216.678 193.177 216.198 193.465 215.793 193.87C215.388 194.276 215.068 194.82 214.833 195.502C214.598 196.185 214.481 197.049 214.481 198.094C214.481 199.246 214.716 200.228 215.185 201.038C215.676 201.828 216.294 202.436 217.041 202.862C217.809 203.268 218.62 203.47 219.473 203.47C220.262 203.47 220.892 203.406 221.361 203.278C221.83 203.15 222.204 203.001 222.481 202.83C222.78 202.638 223.046 202.478 223.281 202.35C223.665 202.158 224.028 202.062 224.369 202.062C224.838 202.062 225.222 202.222 225.521 202.542C225.841 202.862 226.001 203.236 226.001 203.662C226.001 204.238 225.702 204.761 225.105 205.23C224.55 205.7 223.772 206.116 222.769 206.478C221.766 206.82 220.732 206.99 219.665 206.99ZM242.572 189.23C243.788 189.23 244.844 189.358 245.74 189.614C246.657 189.87 247.361 190.233 247.852 190.702C248.364 191.15 248.62 191.694 248.62 192.334C248.62 192.761 248.492 193.166 248.236 193.55C247.98 193.913 247.607 194.094 247.116 194.094C246.775 194.094 246.487 194.052 246.252 193.966C246.039 193.86 245.847 193.732 245.676 193.582C245.505 193.433 245.303 193.294 245.068 193.166C244.855 193.038 244.524 192.942 244.076 192.878C243.649 192.793 243.329 192.75 243.116 192.75C242.028 192.75 241.1 192.985 240.332 193.454C239.585 193.924 239.009 194.564 238.604 195.374C238.199 196.164 237.996 197.081 237.996 198.126C237.996 199.15 238.199 200.068 238.604 200.878C239.031 201.668 239.607 202.297 240.332 202.766C241.079 203.236 241.932 203.47 242.892 203.47C243.425 203.47 243.884 203.438 244.268 203.374C244.652 203.31 244.972 203.214 245.228 203.086C245.527 202.916 245.793 202.734 246.028 202.542C246.263 202.35 246.615 202.254 247.084 202.254C247.639 202.254 248.065 202.436 248.364 202.798C248.663 203.14 248.812 203.566 248.812 204.078C248.812 204.612 248.513 205.102 247.916 205.55C247.319 205.977 246.529 206.329 245.548 206.606C244.588 206.862 243.543 206.99 242.412 206.99C240.727 206.99 239.265 206.606 238.028 205.838C236.791 205.049 235.831 203.982 235.148 202.638C234.487 201.294 234.156 199.79 234.156 198.126C234.156 196.377 234.508 194.841 235.212 193.518C235.937 192.174 236.929 191.129 238.188 190.382C239.468 189.614 240.929 189.23 242.572 189.23ZM265.053 189.23C266.589 189.23 267.752 189.561 268.541 190.222C269.352 190.884 269.906 191.769 270.205 192.878C270.504 193.966 270.653 195.182 270.653 196.526V204.718C270.653 205.273 270.472 205.742 270.109 206.126C269.746 206.489 269.288 206.67 268.733 206.67C268.178 206.67 267.72 206.489 267.357 206.126C266.994 205.742 266.813 205.273 266.813 204.718V196.526C266.813 195.822 266.728 195.193 266.557 194.638C266.386 194.062 266.077 193.604 265.629 193.262C265.181 192.921 264.541 192.75 263.709 192.75C262.898 192.75 262.205 192.921 261.629 193.262C261.053 193.604 260.616 194.062 260.317 194.638C260.04 195.193 259.901 195.822 259.901 196.526V204.718C259.901 205.273 259.72 205.742 259.357 206.126C258.994 206.489 258.536 206.67 257.981 206.67C257.426 206.67 256.968 206.489 256.605 206.126C256.242 205.742 256.061 205.273 256.061 204.718V184.942C256.061 184.388 256.242 183.929 256.605 183.566C256.968 183.182 257.426 182.99 257.981 182.99C258.536 182.99 258.994 183.182 259.357 183.566C259.72 183.929 259.901 184.388 259.901 184.942V192.878L259.421 192.782C259.613 192.42 259.88 192.036 260.221 191.63C260.562 191.204 260.978 190.809 261.469 190.446C261.96 190.084 262.504 189.796 263.101 189.582C263.698 189.348 264.349 189.23 265.053 189.23ZM288.443 189.23C290.022 189.23 291.216 189.561 292.027 190.222C292.859 190.884 293.424 191.769 293.723 192.878C294.043 193.966 294.203 195.182 294.203 196.526V204.718C294.203 205.273 294.022 205.742 293.659 206.126C293.296 206.489 292.838 206.67 292.283 206.67C291.728 206.67 291.27 206.489 290.907 206.126C290.544 205.742 290.363 205.273 290.363 204.718V196.526C290.363 195.822 290.267 195.193 290.075 194.638C289.904 194.062 289.584 193.604 289.115 193.262C288.646 192.921 287.974 192.75 287.099 192.75C286.246 192.75 285.52 192.921 284.923 193.262C284.347 193.604 283.899 194.062 283.579 194.638C283.28 195.193 283.131 195.822 283.131 196.526V204.718C283.131 205.273 282.95 205.742 282.587 206.126C282.224 206.489 281.766 206.67 281.211 206.67C280.656 206.67 280.198 206.489 279.835 206.126C279.472 205.742 279.291 205.273 279.291 204.718V191.502C279.291 190.948 279.472 190.489 279.835 190.126C280.198 189.742 280.656 189.55 281.211 189.55C281.766 189.55 282.224 189.742 282.587 190.126C282.95 190.489 283.131 190.948 283.131 191.502V192.878L282.651 192.782C282.843 192.42 283.12 192.036 283.483 191.63C283.846 191.204 284.272 190.809 284.763 190.446C285.254 190.084 285.808 189.796 286.427 189.582C287.046 189.348 287.718 189.23 288.443 189.23ZM319.442 198.126C319.442 199.876 319.047 201.422 318.258 202.766C317.49 204.089 316.444 205.124 315.122 205.87C313.82 206.617 312.359 206.99 310.738 206.99C309.116 206.99 307.644 206.617 306.322 205.87C305.02 205.124 303.975 204.089 303.186 202.766C302.418 201.422 302.034 199.876 302.034 198.126C302.034 196.377 302.418 194.841 303.186 193.518C303.975 192.174 305.02 191.129 306.322 190.382C307.644 189.614 309.116 189.23 310.738 189.23C312.359 189.23 313.82 189.614 315.122 190.382C316.444 191.129 317.49 192.174 318.258 193.518C319.047 194.841 319.442 196.377 319.442 198.126ZM315.602 198.126C315.602 197.038 315.378 196.1 314.93 195.31C314.503 194.5 313.916 193.87 313.17 193.422C312.444 192.974 311.634 192.75 310.738 192.75C309.842 192.75 309.02 192.974 308.274 193.422C307.548 193.87 306.962 194.5 306.514 195.31C306.087 196.1 305.874 197.038 305.874 198.126C305.874 199.193 306.087 200.132 306.514 200.942C306.962 201.732 307.548 202.35 308.274 202.798C309.02 203.246 309.842 203.47 310.738 203.47C311.634 203.47 312.444 203.246 313.17 202.798C313.916 202.35 314.503 201.732 314.93 200.942C315.378 200.132 315.602 199.193 315.602 198.126ZM331.442 204.718C331.442 205.273 331.25 205.742 330.866 206.126C330.504 206.489 330.045 206.67 329.49 206.67C328.957 206.67 328.509 206.489 328.146 206.126C327.784 205.742 327.602 205.273 327.602 204.718V184.942C327.602 184.388 327.784 183.929 328.146 183.566C328.53 183.182 329 182.99 329.554 182.99C330.109 182.99 330.557 183.182 330.898 183.566C331.261 183.929 331.442 184.388 331.442 184.942V204.718ZM356.683 198.126C356.683 199.876 356.288 201.422 355.499 202.766C354.731 204.089 353.685 205.124 352.363 205.87C351.061 206.617 349.6 206.99 347.979 206.99C346.357 206.99 344.885 206.617 343.563 205.87C342.261 205.124 341.216 204.089 340.427 202.766C339.659 201.422 339.275 199.876 339.275 198.126C339.275 196.377 339.659 194.841 340.427 193.518C341.216 192.174 342.261 191.129 343.563 190.382C344.885 189.614 346.357 189.23 347.979 189.23C349.6 189.23 351.061 189.614 352.363 190.382C353.685 191.129 354.731 192.174 355.499 193.518C356.288 194.841 356.683 196.377 356.683 198.126ZM352.843 198.126C352.843 197.038 352.619 196.1 352.171 195.31C351.744 194.5 351.157 193.87 350.411 193.422C349.685 192.974 348.875 192.75 347.979 192.75C347.083 192.75 346.261 192.974 345.515 193.422C344.789 193.87 344.203 194.5 343.755 195.31C343.328 196.1 343.115 197.038 343.115 198.126C343.115 199.193 343.328 200.132 343.755 200.942C344.203 201.732 344.789 202.35 345.515 202.798C346.261 203.246 347.083 203.47 347.979 203.47C348.875 203.47 349.685 203.246 350.411 202.798C351.157 202.35 351.744 201.732 352.171 200.942C352.619 200.132 352.843 199.193 352.843 198.126ZM371.628 189.23C372.524 189.23 373.345 189.369 374.092 189.646C374.838 189.924 375.478 190.276 376.012 190.702C376.566 191.129 376.993 191.566 377.292 192.014C377.612 192.441 377.772 192.804 377.772 193.102L376.94 193.518V191.182C376.94 190.628 377.121 190.169 377.484 189.806C377.846 189.422 378.305 189.23 378.86 189.23C379.414 189.23 379.873 189.412 380.236 189.774C380.598 190.137 380.78 190.606 380.78 191.182V205.422C380.78 207.278 380.374 208.761 379.564 209.87C378.774 211.001 377.729 211.812 376.428 212.302C375.126 212.814 373.729 213.07 372.236 213.07C371.809 213.07 371.254 213.017 370.572 212.91C369.889 212.804 369.238 212.676 368.62 212.526C368.001 212.377 367.532 212.238 367.212 212.11C366.572 211.833 366.124 211.481 365.868 211.054C365.633 210.649 365.59 210.212 365.74 209.742C365.932 209.124 366.241 208.697 366.668 208.462C367.094 208.249 367.542 208.228 368.012 208.398C368.225 208.462 368.577 208.59 369.068 208.782C369.558 208.974 370.092 209.145 370.668 209.294C371.265 209.465 371.788 209.55 372.236 209.55C373.836 209.55 375.02 209.23 375.788 208.59C376.556 207.95 376.94 207.065 376.94 205.934V203.15L377.324 203.438C377.324 203.716 377.174 204.057 376.876 204.462C376.598 204.846 376.204 205.23 375.692 205.614C375.201 205.998 374.614 206.329 373.932 206.606C373.249 206.862 372.524 206.99 371.756 206.99C370.241 206.99 368.876 206.617 367.66 205.87C366.444 205.102 365.484 204.057 364.78 202.734C364.076 201.39 363.724 199.854 363.724 198.126C363.724 196.377 364.076 194.841 364.78 193.518C365.484 192.174 366.433 191.129 367.628 190.382C368.822 189.614 370.156 189.23 371.628 189.23ZM372.236 192.75C371.276 192.75 370.433 192.985 369.708 193.454C368.982 193.924 368.417 194.564 368.012 195.374C367.606 196.185 367.404 197.102 367.404 198.126C367.404 199.129 367.606 200.036 368.012 200.846C368.417 201.657 368.982 202.297 369.708 202.766C370.433 203.236 371.276 203.47 372.236 203.47C373.217 203.47 374.07 203.236 374.796 202.766C375.521 202.297 376.086 201.657 376.492 200.846C376.897 200.036 377.1 199.129 377.1 198.126C377.1 197.102 376.897 196.185 376.492 195.374C376.086 194.564 375.521 193.924 374.796 193.454C374.07 192.985 373.217 192.75 372.236 192.75ZM402.114 189.55C402.668 189.55 403.127 189.742 403.49 190.126C403.852 190.489 404.034 190.948 404.034 191.502V205.102C404.034 207.065 403.66 208.622 402.914 209.774C402.188 210.948 401.207 211.79 399.97 212.302C398.732 212.814 397.346 213.07 395.81 213.07C395.127 213.07 394.402 213.017 393.634 212.91C392.866 212.804 392.236 212.644 391.746 212.43C391.106 212.153 390.658 211.801 390.402 211.374C390.167 210.969 390.124 210.532 390.274 210.062C390.466 209.444 390.775 209.017 391.202 208.782C391.628 208.569 392.076 208.548 392.546 208.718C392.887 208.825 393.335 208.985 393.89 209.198C394.444 209.433 395.084 209.55 395.81 209.55C396.791 209.55 397.602 209.412 398.242 209.134C398.903 208.878 399.394 208.43 399.714 207.79C400.055 207.172 400.226 206.318 400.226 205.23V203.086L400.898 203.854C400.535 204.558 400.076 205.145 399.522 205.614C398.988 206.062 398.348 206.404 397.602 206.638C396.855 206.873 396.002 206.99 395.042 206.99C393.911 206.99 392.919 206.734 392.066 206.222C391.234 205.689 390.583 204.964 390.114 204.046C389.644 203.108 389.41 202.041 389.41 200.846V191.502C389.41 190.948 389.591 190.489 389.954 190.126C390.316 189.742 390.775 189.55 391.33 189.55C391.884 189.55 392.343 189.742 392.706 190.126C393.068 190.489 393.25 190.948 393.25 191.502V199.694C393.25 201.081 393.548 202.062 394.146 202.638C394.764 203.193 395.618 203.47 396.706 203.47C397.452 203.47 398.082 203.332 398.594 203.054C399.106 202.756 399.5 202.329 399.778 201.774C400.055 201.198 400.194 200.505 400.194 199.694V191.502C400.194 190.948 400.375 190.489 400.738 190.126C401.1 189.742 401.559 189.55 402.114 189.55Z" fill="white"/>
<path d="M205.378 67.688C205.933 67.9653 206.253 68.4027 206.338 69C206.445 69.5973 206.296 70.1413 205.89 70.632C205.613 71.016 205.25 71.2293 204.802 71.272C204.376 71.3147 203.938 71.2293 203.49 71.016C202.978 70.7813 202.434 70.6 201.858 70.472C201.304 70.344 200.717 70.28 200.098 70.28C198.946 70.28 197.912 70.4613 196.994 70.824C196.098 71.1867 195.33 71.7093 194.69 72.392C194.05 73.0533 193.56 73.8427 193.218 74.76C192.898 75.6773 192.738 76.6907 192.738 77.8C192.738 79.1013 192.92 80.232 193.282 81.192C193.666 82.152 194.189 82.952 194.85 83.592C195.512 84.232 196.29 84.712 197.186 85.032C198.082 85.3307 199.053 85.48 200.098 85.48C200.674 85.48 201.25 85.4267 201.826 85.32C202.402 85.2133 202.957 85.0213 203.49 84.744C203.938 84.5307 204.376 84.456 204.802 84.52C205.25 84.584 205.624 84.808 205.922 85.192C206.349 85.7253 206.498 86.28 206.37 86.856C206.264 87.4107 205.944 87.816 205.41 88.072C204.856 88.3493 204.28 88.584 203.682 88.776C203.106 88.9467 202.52 89.0747 201.922 89.16C201.325 89.2667 200.717 89.32 200.098 89.32C198.562 89.32 197.101 89.0747 195.714 88.584C194.349 88.0933 193.122 87.368 192.034 86.408C190.968 85.448 190.125 84.2533 189.506 82.824C188.888 81.3733 188.578 79.6987 188.578 77.8C188.578 76.1573 188.856 74.6427 189.41 73.256C189.986 71.8693 190.786 70.6747 191.81 69.672C192.856 68.648 194.082 67.8587 195.49 67.304C196.898 66.728 198.434 66.44 200.098 66.44C201.037 66.44 201.954 66.5467 202.85 66.76C203.746 66.9733 204.589 67.2827 205.378 67.688ZM230.529 80.456C230.529 82.2053 230.134 83.752 229.345 85.096C228.577 86.4187 227.532 87.4533 226.209 88.2C224.908 88.9467 223.446 89.32 221.825 89.32C220.204 89.32 218.732 88.9467 217.409 88.2C216.108 87.4533 215.062 86.4187 214.273 85.096C213.505 83.752 213.121 82.2053 213.121 80.456C213.121 78.7067 213.505 77.1707 214.273 75.848C215.062 74.504 216.108 73.4587 217.409 72.712C218.732 71.944 220.204 71.56 221.825 71.56C223.446 71.56 224.908 71.944 226.209 72.712C227.532 73.4587 228.577 74.504 229.345 75.848C230.134 77.1707 230.529 78.7067 230.529 80.456ZM226.689 80.456C226.689 79.368 226.465 78.4293 226.017 77.64C225.59 76.8293 225.004 76.2 224.257 75.752C223.532 75.304 222.721 75.08 221.825 75.08C220.929 75.08 220.108 75.304 219.361 75.752C218.636 76.2 218.049 76.8293 217.601 77.64C217.174 78.4293 216.961 79.368 216.961 80.456C216.961 81.5227 217.174 82.4613 217.601 83.272C218.049 84.0613 218.636 84.68 219.361 85.128C220.108 85.576 220.929 85.8 221.825 85.8C222.721 85.8 223.532 85.576 224.257 85.128C225.004 84.68 225.59 84.0613 226.017 83.272C226.465 82.4613 226.689 81.5227 226.689 80.456ZM247.522 71.56C249.1 71.56 250.295 71.8907 251.106 72.552C251.938 73.2133 252.503 74.0987 252.802 75.208C253.122 76.296 253.282 77.512 253.282 78.856V87.048C253.282 87.6027 253.1 88.072 252.738 88.456C252.375 88.8187 251.916 89 251.362 89C250.807 89 250.348 88.8187 249.986 88.456C249.623 88.072 249.442 87.6027 249.442 87.048V78.856C249.442 78.152 249.346 77.5227 249.154 76.968C248.983 76.392 248.663 75.9333 248.194 75.592C247.724 75.2507 247.052 75.08 246.178 75.08C245.324 75.08 244.599 75.2507 244.002 75.592C243.426 75.9333 242.978 76.392 242.658 76.968C242.359 77.5227 242.21 78.152 242.21 78.856V87.048C242.21 87.6027 242.028 88.072 241.666 88.456C241.303 88.8187 240.844 89 240.29 89C239.735 89 239.276 88.8187 238.914 88.456C238.551 88.072 238.37 87.6027 238.37 87.048V73.832C238.37 73.2773 238.551 72.8187 238.914 72.456C239.276 72.072 239.735 71.88 240.29 71.88C240.844 71.88 241.303 72.072 241.666 72.456C242.028 72.8187 242.21 73.2773 242.21 73.832V75.208L241.73 75.112C241.922 74.7493 242.199 74.3653 242.562 73.96C242.924 73.5333 243.351 73.1387 243.842 72.776C244.332 72.4133 244.887 72.1253 245.506 71.912C246.124 71.6773 246.796 71.56 247.522 71.56ZM271.064 71.56C272.643 71.56 273.837 71.8907 274.648 72.552C275.48 73.2133 276.045 74.0987 276.344 75.208C276.664 76.296 276.824 77.512 276.824 78.856V87.048C276.824 87.6027 276.643 88.072 276.28 88.456C275.917 88.8187 275.459 89 274.904 89C274.349 89 273.891 88.8187 273.528 88.456C273.165 88.072 272.984 87.6027 272.984 87.048V78.856C272.984 78.152 272.888 77.5227 272.696 76.968C272.525 76.392 272.205 75.9333 271.736 75.592C271.267 75.2507 270.595 75.08 269.72 75.08C268.867 75.08 268.141 75.2507 267.544 75.592C266.968 75.9333 266.52 76.392 266.2 76.968C265.901 77.5227 265.752 78.152 265.752 78.856V87.048C265.752 87.6027 265.571 88.072 265.208 88.456C264.845 88.8187 264.387 89 263.832 89C263.277 89 262.819 88.8187 262.456 88.456C262.093 88.072 261.912 87.6027 261.912 87.048V73.832C261.912 73.2773 262.093 72.8187 262.456 72.456C262.819 72.072 263.277 71.88 263.832 71.88C264.387 71.88 264.845 72.072 265.208 72.456C265.571 72.8187 265.752 73.2773 265.752 73.832V75.208L265.272 75.112C265.464 74.7493 265.741 74.3653 266.104 73.96C266.467 73.5333 266.893 73.1387 267.384 72.776C267.875 72.4133 268.429 72.1253 269.048 71.912C269.667 71.6773 270.339 71.56 271.064 71.56ZM293.519 89.32C291.705 89.32 290.127 88.9467 288.783 88.2C287.46 87.432 286.436 86.3973 285.711 85.096C285.007 83.7947 284.655 82.3227 284.655 80.68C284.655 78.76 285.039 77.128 285.807 75.784C286.596 74.4187 287.62 73.3733 288.879 72.648C290.137 71.9227 291.471 71.56 292.879 71.56C293.967 71.56 294.991 71.784 295.951 72.232C296.932 72.68 297.796 73.2987 298.543 74.088C299.289 74.856 299.876 75.752 300.303 76.776C300.751 77.8 300.975 78.888 300.975 80.04C300.953 80.552 300.751 80.968 300.367 81.288C299.983 81.608 299.535 81.768 299.023 81.768H286.799L285.839 78.568H297.583L296.879 79.208V78.344C296.836 77.7253 296.612 77.1707 296.207 76.68C295.823 76.1893 295.332 75.8053 294.735 75.528C294.159 75.2293 293.54 75.08 292.879 75.08C292.239 75.08 291.641 75.1653 291.087 75.336C290.532 75.5067 290.052 75.7947 289.647 76.2C289.241 76.6053 288.921 77.1493 288.687 77.832C288.452 78.5147 288.335 79.3787 288.335 80.424C288.335 81.576 288.569 82.5573 289.039 83.368C289.529 84.1573 290.148 84.7653 290.895 85.192C291.663 85.5973 292.473 85.8 293.327 85.8C294.116 85.8 294.745 85.736 295.215 85.608C295.684 85.48 296.057 85.3307 296.335 85.16C296.633 84.968 296.9 84.808 297.135 84.68C297.519 84.488 297.881 84.392 298.223 84.392C298.692 84.392 299.076 84.552 299.375 84.872C299.695 85.192 299.855 85.5653 299.855 85.992C299.855 86.568 299.556 87.0907 298.959 87.56C298.404 88.0293 297.625 88.4453 296.623 88.808C295.62 89.1493 294.585 89.32 293.519 89.32ZM316.426 71.56C317.642 71.56 318.698 71.688 319.594 71.944C320.511 72.2 321.215 72.5627 321.706 73.032C322.218 73.48 322.474 74.024 322.474 74.664C322.474 75.0907 322.346 75.496 322.09 75.88C321.834 76.2427 321.46 76.424 320.97 76.424C320.628 76.424 320.34 76.3813 320.106 76.296C319.892 76.1893 319.7 76.0613 319.53 75.912C319.359 75.7627 319.156 75.624 318.922 75.496C318.708 75.368 318.378 75.272 317.93 75.208C317.503 75.1227 317.183 75.08 316.97 75.08C315.882 75.08 314.954 75.3147 314.186 75.784C313.439 76.2533 312.863 76.8933 312.458 77.704C312.052 78.4933 311.85 79.4107 311.85 80.456C311.85 81.48 312.052 82.3973 312.458 83.208C312.884 83.9973 313.46 84.6267 314.186 85.096C314.932 85.5653 315.786 85.8 316.746 85.8C317.279 85.8 317.738 85.768 318.122 85.704C318.506 85.64 318.826 85.544 319.082 85.416C319.38 85.2453 319.647 85.064 319.882 84.872C320.116 84.68 320.468 84.584 320.938 84.584C321.492 84.584 321.919 84.7653 322.218 85.128C322.516 85.4693 322.666 85.896 322.666 86.408C322.666 86.9413 322.367 87.432 321.77 87.88C321.172 88.3067 320.383 88.6587 319.402 88.936C318.442 89.192 317.396 89.32 316.266 89.32C314.58 89.32 313.119 88.936 311.882 88.168C310.644 87.3787 309.684 86.312 309.002 84.968C308.34 83.624 308.01 82.12 308.01 80.456C308.01 78.7067 308.362 77.1707 309.066 75.848C309.791 74.504 310.783 73.4587 312.042 72.712C313.322 71.944 314.783 71.56 316.426 71.56ZM330.107 72.2H337.691C338.203 72.2 338.629 72.3707 338.971 72.712C339.312 73.0533 339.483 73.48 339.483 73.992C339.483 74.4827 339.312 74.8987 338.971 75.24C338.629 75.56 338.203 75.72 337.691 75.72H330.107C329.595 75.72 329.168 75.5493 328.827 75.208C328.485 74.8667 328.315 74.44 328.315 73.928C328.315 73.4373 328.485 73.032 328.827 72.712C329.168 72.3707 329.595 72.2 330.107 72.2ZM333.531 68.2C334.085 68.2 334.533 68.392 334.875 68.776C335.237 69.1387 335.419 69.5973 335.419 70.152V84.392C335.419 84.6907 335.472 84.936 335.579 85.128C335.707 85.32 335.867 85.4587 336.059 85.544C336.272 85.6293 336.496 85.672 336.731 85.672C336.987 85.672 337.221 85.6293 337.435 85.544C337.648 85.4373 337.893 85.384 338.171 85.384C338.469 85.384 338.736 85.5227 338.971 85.8C339.227 86.0773 339.355 86.4613 339.355 86.952C339.355 87.5493 339.024 88.04 338.363 88.424C337.723 88.808 337.029 89 336.283 89C335.835 89 335.333 88.968 334.779 88.904C334.245 88.8187 333.733 88.6373 333.243 88.36C332.773 88.0613 332.379 87.6133 332.059 87.016C331.739 86.4187 331.579 85.5973 331.579 84.552V70.152C331.579 69.5973 331.76 69.1387 332.123 68.776C332.507 68.392 332.976 68.2 333.531 68.2ZM351.104 87.048C351.104 87.6027 350.923 88.072 350.56 88.456C350.198 88.8187 349.739 89 349.184 89C348.63 89 348.171 88.8187 347.808 88.456C347.446 88.072 347.264 87.6027 347.264 87.048V73.832C347.264 73.2773 347.446 72.8187 347.808 72.456C348.171 72.072 348.63 71.88 349.184 71.88C349.739 71.88 350.198 72.072 350.56 72.456C350.923 72.8187 351.104 73.2773 351.104 73.832V87.048ZM349.152 69.8C348.427 69.8 347.915 69.6827 347.616 69.448C347.318 69.2133 347.168 68.7973 347.168 68.2V67.592C347.168 66.9733 347.328 66.5573 347.648 66.344C347.99 66.1093 348.502 65.992 349.184 65.992C349.931 65.992 350.454 66.1093 350.752 66.344C351.051 66.5787 351.2 66.9947 351.2 67.592V68.2C351.2 68.8187 351.04 69.2453 350.72 69.48C350.4 69.6933 349.878 69.8 349.152 69.8ZM368.683 71.56C370.262 71.56 371.456 71.8907 372.267 72.552C373.099 73.2133 373.664 74.0987 373.963 75.208C374.283 76.296 374.443 77.512 374.443 78.856V87.048C374.443 87.6027 374.262 88.072 373.899 88.456C373.536 88.8187 373.078 89 372.523 89C371.968 89 371.51 88.8187 371.147 88.456C370.784 88.072 370.603 87.6027 370.603 87.048V78.856C370.603 78.152 370.507 77.5227 370.315 76.968C370.144 76.392 369.824 75.9333 369.355 75.592C368.886 75.2507 368.214 75.08 367.339 75.08C366.486 75.08 365.76 75.2507 365.163 75.592C364.587 75.9333 364.139 76.392 363.819 76.968C363.52 77.5227 363.371 78.152 363.371 78.856V87.048C363.371 87.6027 363.19 88.072 362.827 88.456C362.464 88.8187 362.006 89 361.451 89C360.896 89 360.438 88.8187 360.075 88.456C359.712 88.072 359.531 87.6027 359.531 87.048V73.832C359.531 73.2773 359.712 72.8187 360.075 72.456C360.438 72.072 360.896 71.88 361.451 71.88C362.006 71.88 362.464 72.072 362.827 72.456C363.19 72.8187 363.371 73.2773 363.371 73.832V75.208L362.891 75.112C363.083 74.7493 363.36 74.3653 363.723 73.96C364.086 73.5333 364.512 73.1387 365.003 72.776C365.494 72.4133 366.048 72.1253 366.667 71.912C367.286 71.6773 367.958 71.56 368.683 71.56ZM390.177 71.56C391.073 71.56 391.895 71.6987 392.641 71.976C393.388 72.2533 394.028 72.6053 394.561 73.032C395.116 73.4587 395.543 73.896 395.841 74.344C396.161 74.7707 396.321 75.1333 396.321 75.432L395.489 75.848V73.512C395.489 72.9573 395.671 72.4987 396.033 72.136C396.396 71.752 396.855 71.56 397.409 71.56C397.964 71.56 398.423 71.7413 398.785 72.104C399.148 72.4667 399.329 72.936 399.329 73.512V87.752C399.329 89.608 398.924 91.0907 398.113 92.2C397.324 93.3307 396.279 94.1413 394.977 94.632C393.676 95.144 392.279 95.4 390.785 95.4C390.359 95.4 389.804 95.3467 389.121 95.24C388.439 95.1333 387.788 95.0053 387.169 94.856C386.551 94.7067 386.081 94.568 385.761 94.44C385.121 94.1627 384.673 93.8107 384.417 93.384C384.183 92.9787 384.14 92.5413 384.289 92.072C384.481 91.4533 384.791 91.0267 385.217 90.792C385.644 90.5787 386.092 90.5573 386.561 90.728C386.775 90.792 387.127 90.92 387.617 91.112C388.108 91.304 388.641 91.4747 389.217 91.624C389.815 91.7947 390.337 91.88 390.785 91.88C392.385 91.88 393.569 91.56 394.337 90.92C395.105 90.28 395.489 89.3947 395.489 88.264V85.48L395.873 85.768C395.873 86.0453 395.724 86.3867 395.425 86.792C395.148 87.176 394.753 87.56 394.241 87.944C393.751 88.328 393.164 88.6587 392.481 88.936C391.799 89.192 391.073 89.32 390.305 89.32C388.791 89.32 387.425 88.9467 386.209 88.2C384.993 87.432 384.033 86.3867 383.329 85.064C382.625 83.72 382.273 82.184 382.273 80.456C382.273 78.7067 382.625 77.1707 383.329 75.848C384.033 74.504 384.983 73.4587 386.177 72.712C387.372 71.944 388.705 71.56 390.177 71.56ZM390.785 75.08C389.825 75.08 388.983 75.3147 388.257 75.784C387.532 76.2533 386.967 76.8933 386.561 77.704C386.156 78.5147 385.953 79.432 385.953 80.456C385.953 81.4587 386.156 82.3653 386.561 83.176C386.967 83.9867 387.532 84.6267 388.257 85.096C388.983 85.5653 389.825 85.8 390.785 85.8C391.767 85.8 392.62 85.5653 393.345 85.096C394.071 84.6267 394.636 83.9867 395.041 83.176C395.447 82.3653 395.649 81.4587 395.649 80.456C395.649 79.432 395.447 78.5147 395.041 77.704C394.636 76.8933 394.071 76.2533 393.345 75.784C392.62 75.3147 391.767 75.08 390.785 75.08Z" fill="white"/>
<path d="M201.27 105.824C203.318 105.824 204.843 106.304 205.846 107.264C206.848 108.224 207.35 109.642 207.35 111.52C207.35 112.522 207.104 113.408 206.614 114.176C206.123 114.922 205.398 115.509 204.438 115.936C203.478 116.341 202.294 116.544 200.886 116.544L201.014 115.104C201.675 115.104 202.432 115.2 203.286 115.392C204.139 115.562 204.96 115.882 205.75 116.352C206.56 116.8 207.222 117.44 207.734 118.272C208.267 119.082 208.534 120.128 208.534 121.408C208.534 122.816 208.299 123.968 207.83 124.864C207.382 125.76 206.784 126.453 206.038 126.944C205.291 127.434 204.491 127.776 203.638 127.968C202.784 128.138 201.963 128.224 201.174 128.224H193.206C192.651 128.224 192.182 128.042 191.798 127.68C191.435 127.296 191.254 126.826 191.254 126.272V107.776C191.254 107.221 191.435 106.762 191.798 106.4C192.182 106.016 192.651 105.824 193.206 105.824H201.27ZM200.694 109.6H194.998L195.414 109.088V114.88L195.03 114.592H200.79C201.408 114.592 201.963 114.389 202.454 113.984C202.944 113.578 203.19 112.992 203.19 112.224C203.19 111.306 202.955 110.645 202.486 110.24C202.038 109.813 201.44 109.6 200.694 109.6ZM200.95 118.368H195.126L195.414 118.112V124.864L195.094 124.544H201.174C202.155 124.544 202.934 124.288 203.51 123.776C204.086 123.242 204.374 122.453 204.374 121.408C204.374 120.448 204.182 119.754 203.798 119.328C203.414 118.901 202.955 118.634 202.422 118.528C201.888 118.421 201.398 118.368 200.95 118.368ZM229.086 111.104C229.641 111.104 230.1 111.296 230.462 111.68C230.825 112.042 231.006 112.501 231.006 113.056V121.184C231.006 123.445 230.377 125.237 229.118 126.56C227.86 127.882 226.046 128.544 223.678 128.544C221.31 128.544 219.497 127.882 218.238 126.56C217.001 125.237 216.382 123.445 216.382 121.184V113.056C216.382 112.501 216.564 112.042 216.926 111.68C217.289 111.296 217.748 111.104 218.302 111.104C218.857 111.104 219.316 111.296 219.678 111.68C220.041 112.042 220.222 112.501 220.222 113.056V121.184C220.222 122.485 220.51 123.456 221.086 124.096C221.662 124.714 222.526 125.024 223.678 125.024C224.852 125.024 225.726 124.714 226.302 124.096C226.878 123.456 227.166 122.485 227.166 121.184V113.056C227.166 112.501 227.348 112.042 227.71 111.68C228.073 111.296 228.532 111.104 229.086 111.104ZM238.652 125.568C238.438 125.269 238.342 124.885 238.364 124.416C238.385 123.946 238.662 123.541 239.196 123.2C239.537 122.986 239.9 122.901 240.284 122.944C240.668 122.965 241.041 123.157 241.404 123.52C242.022 124.138 242.673 124.618 243.356 124.96C244.038 125.301 244.892 125.472 245.916 125.472C246.236 125.45 246.588 125.408 246.972 125.344C247.356 125.258 247.686 125.088 247.964 124.832C248.262 124.554 248.412 124.138 248.412 123.584C248.412 123.114 248.252 122.741 247.932 122.464C247.612 122.186 247.185 121.952 246.652 121.76C246.14 121.568 245.564 121.386 244.924 121.216C244.262 121.024 243.58 120.81 242.876 120.576C242.193 120.341 241.564 120.042 240.988 119.68C240.412 119.296 239.942 118.794 239.58 118.176C239.217 117.557 239.036 116.778 239.036 115.84C239.036 114.773 239.334 113.866 239.932 113.12C240.529 112.373 241.297 111.797 242.236 111.392C243.196 110.986 244.198 110.784 245.244 110.784C245.905 110.784 246.598 110.869 247.324 111.04C248.049 111.189 248.742 111.445 249.404 111.808C250.065 112.149 250.62 112.608 251.068 113.184C251.302 113.504 251.441 113.888 251.484 114.336C251.526 114.784 251.324 115.189 250.876 115.552C250.556 115.808 250.182 115.925 249.756 115.904C249.329 115.861 248.977 115.712 248.7 115.456C248.337 114.986 247.846 114.613 247.228 114.336C246.63 114.058 245.937 113.92 245.148 113.92C244.828 113.92 244.476 113.962 244.092 114.048C243.729 114.112 243.409 114.272 243.132 114.528C242.854 114.762 242.716 115.146 242.716 115.68C242.716 116.17 242.876 116.565 243.196 116.864C243.516 117.141 243.942 117.376 244.476 117.568C245.03 117.738 245.617 117.909 246.236 118.08C246.876 118.25 247.526 118.453 248.188 118.688C248.849 118.922 249.457 119.232 250.012 119.616C250.566 120 251.014 120.501 251.356 121.12C251.697 121.717 251.868 122.485 251.868 123.424C251.868 124.512 251.548 125.44 250.908 126.208C250.268 126.976 249.468 127.562 248.508 127.968C247.548 128.352 246.566 128.544 245.564 128.544C244.305 128.544 243.046 128.33 241.788 127.904C240.529 127.456 239.484 126.677 238.652 125.568ZM263.177 126.272C263.177 126.826 262.996 127.296 262.633 127.68C262.27 128.042 261.812 128.224 261.257 128.224C260.702 128.224 260.244 128.042 259.881 127.68C259.518 127.296 259.337 126.826 259.337 126.272V113.056C259.337 112.501 259.518 112.042 259.881 111.68C260.244 111.296 260.702 111.104 261.257 111.104C261.812 111.104 262.27 111.296 262.633 111.68C262.996 112.042 263.177 112.501 263.177 113.056V126.272ZM261.225 109.024C260.5 109.024 259.988 108.906 259.689 108.672C259.39 108.437 259.241 108.021 259.241 107.424V106.816C259.241 106.197 259.401 105.781 259.721 105.568C260.062 105.333 260.574 105.216 261.257 105.216C262.004 105.216 262.526 105.333 262.825 105.568C263.124 105.802 263.273 106.218 263.273 106.816V107.424C263.273 108.042 263.113 108.469 262.793 108.704C262.473 108.917 261.95 109.024 261.225 109.024ZM280.756 110.784C282.334 110.784 283.529 111.114 284.34 111.776C285.172 112.437 285.737 113.322 286.036 114.432C286.356 115.52 286.516 116.736 286.516 118.08V126.272C286.516 126.826 286.334 127.296 285.972 127.68C285.609 128.042 285.15 128.224 284.596 128.224C284.041 128.224 283.582 128.042 283.22 127.68C282.857 127.296 282.676 126.826 282.676 126.272V118.08C282.676 117.376 282.58 116.746 282.388 116.192C282.217 115.616 281.897 115.157 281.428 114.816C280.958 114.474 280.286 114.304 279.412 114.304C278.558 114.304 277.833 114.474 277.236 114.816C276.66 115.157 276.212 115.616 275.892 116.192C275.593 116.746 275.444 117.376 275.444 118.08V126.272C275.444 126.826 275.262 127.296 274.9 127.68C274.537 128.042 274.078 128.224 273.524 128.224C272.969 128.224 272.51 128.042 272.148 127.68C271.785 127.296 271.604 126.826 271.604 126.272V113.056C271.604 112.501 271.785 112.042 272.148 111.68C272.51 111.296 272.969 111.104 273.524 111.104C274.078 111.104 274.537 111.296 274.9 111.68C275.262 112.042 275.444 112.501 275.444 113.056V114.432L274.964 114.336C275.156 113.973 275.433 113.589 275.796 113.184C276.158 112.757 276.585 112.362 277.076 112C277.566 111.637 278.121 111.349 278.74 111.136C279.358 110.901 280.03 110.784 280.756 110.784ZM303.21 128.544C301.397 128.544 299.818 128.17 298.474 127.424C297.151 126.656 296.127 125.621 295.402 124.32C294.698 123.018 294.346 121.546 294.346 119.904C294.346 117.984 294.73 116.352 295.498 115.008C296.287 113.642 297.311 112.597 298.57 111.872C299.829 111.146 301.162 110.784 302.57 110.784C303.658 110.784 304.682 111.008 305.642 111.456C306.623 111.904 307.487 112.522 308.234 113.312C308.981 114.08 309.567 114.976 309.994 116C310.442 117.024 310.666 118.112 310.666 119.264C310.645 119.776 310.442 120.192 310.058 120.512C309.674 120.832 309.226 120.992 308.714 120.992H296.49L295.53 117.792H307.274L306.57 118.432V117.568C306.527 116.949 306.303 116.394 305.898 115.904C305.514 115.413 305.023 115.029 304.426 114.752C303.85 114.453 303.231 114.304 302.57 114.304C301.93 114.304 301.333 114.389 300.778 114.56C300.223 114.73 299.743 115.018 299.338 115.424C298.933 115.829 298.613 116.373 298.378 117.056C298.143 117.738 298.026 118.602 298.026 119.648C298.026 120.8 298.261 121.781 298.73 122.592C299.221 123.381 299.839 123.989 300.586 124.416C301.354 124.821 302.165 125.024 303.018 125.024C303.807 125.024 304.437 124.96 304.906 124.832C305.375 124.704 305.749 124.554 306.026 124.384C306.325 124.192 306.591 124.032 306.826 123.904C307.21 123.712 307.573 123.616 307.914 123.616C308.383 123.616 308.767 123.776 309.066 124.096C309.386 124.416 309.546 124.789 309.546 125.216C309.546 125.792 309.247 126.314 308.65 126.784C308.095 127.253 307.317 127.669 306.314 128.032C305.311 128.373 304.277 128.544 303.21 128.544ZM317.509 125.568C317.296 125.269 317.2 124.885 317.221 124.416C317.242 123.946 317.52 123.541 318.053 123.2C318.394 122.986 318.757 122.901 319.141 122.944C319.525 122.965 319.898 123.157 320.261 123.52C320.88 124.138 321.53 124.618 322.213 124.96C322.896 125.301 323.749 125.472 324.773 125.472C325.093 125.45 325.445 125.408 325.829 125.344C326.213 125.258 326.544 125.088 326.821 124.832C327.12 124.554 327.269 124.138 327.269 123.584C327.269 123.114 327.109 122.741 326.789 122.464C326.469 122.186 326.042 121.952 325.509 121.76C324.997 121.568 324.421 121.386 323.781 121.216C323.12 121.024 322.437 120.81 321.733 120.576C321.05 120.341 320.421 120.042 319.845 119.68C319.269 119.296 318.8 118.794 318.437 118.176C318.074 117.557 317.893 116.778 317.893 115.84C317.893 114.773 318.192 113.866 318.789 113.12C319.386 112.373 320.154 111.797 321.093 111.392C322.053 110.986 323.056 110.784 324.101 110.784C324.762 110.784 325.456 110.869 326.181 111.04C326.906 111.189 327.6 111.445 328.261 111.808C328.922 112.149 329.477 112.608 329.925 113.184C330.16 113.504 330.298 113.888 330.341 114.336C330.384 114.784 330.181 115.189 329.733 115.552C329.413 115.808 329.04 115.925 328.613 115.904C328.186 115.861 327.834 115.712 327.557 115.456C327.194 114.986 326.704 114.613 326.085 114.336C325.488 114.058 324.794 113.92 324.005 113.92C323.685 113.92 323.333 113.962 322.949 114.048C322.586 114.112 322.266 114.272 321.989 114.528C321.712 114.762 321.573 115.146 321.573 115.68C321.573 116.17 321.733 116.565 322.053 116.864C322.373 117.141 322.8 117.376 323.333 117.568C323.888 117.738 324.474 117.909 325.093 118.08C325.733 118.25 326.384 118.453 327.045 118.688C327.706 118.922 328.314 119.232 328.869 119.616C329.424 120 329.872 120.501 330.213 121.12C330.554 121.717 330.725 122.485 330.725 123.424C330.725 124.512 330.405 125.44 329.765 126.208C329.125 126.976 328.325 127.562 327.365 127.968C326.405 128.352 325.424 128.544 324.421 128.544C323.162 128.544 321.904 128.33 320.645 127.904C319.386 127.456 318.341 126.677 317.509 125.568ZM337.427 125.568C337.213 125.269 337.117 124.885 337.139 124.416C337.16 123.946 337.437 123.541 337.971 123.2C338.312 122.986 338.675 122.901 339.059 122.944C339.443 122.965 339.816 123.157 340.179 123.52C340.797 124.138 341.448 124.618 342.131 124.96C342.813 125.301 343.667 125.472 344.691 125.472C345.011 125.45 345.363 125.408 345.747 125.344C346.131 125.258 346.461 125.088 346.739 124.832C347.037 124.554 347.187 124.138 347.187 123.584C347.187 123.114 347.027 122.741 346.707 122.464C346.387 122.186 345.96 121.952 345.427 121.76C344.915 121.568 344.339 121.386 343.699 121.216C343.037 121.024 342.355 120.81 341.651 120.576C340.968 120.341 340.339 120.042 339.763 119.68C339.187 119.296 338.717 118.794 338.355 118.176C337.992 117.557 337.811 116.778 337.811 115.84C337.811 114.773 338.109 113.866 338.707 113.12C339.304 112.373 340.072 111.797 341.011 111.392C341.971 110.986 342.973 110.784 344.019 110.784C344.68 110.784 345.373 110.869 346.099 111.04C346.824 111.189 347.517 111.445 348.179 111.808C348.84 112.149 349.395 112.608 349.843 113.184C350.077 113.504 350.216 113.888 350.259 114.336C350.301 114.784 350.099 115.189 349.651 115.552C349.331 115.808 348.957 115.925 348.531 115.904C348.104 115.861 347.752 115.712 347.475 115.456C347.112 114.986 346.621 114.613 346.003 114.336C345.405 114.058 344.712 113.92 343.923 113.92C343.603 113.92 343.251 113.962 342.867 114.048C342.504 114.112 342.184 114.272 341.907 114.528C341.629 114.762 341.491 115.146 341.491 115.68C341.491 116.17 341.651 116.565 341.971 116.864C342.291 117.141 342.717 117.376 343.251 117.568C343.805 117.738 344.392 117.909 345.011 118.08C345.651 118.25 346.301 118.453 346.963 118.688C347.624 118.922 348.232 119.232 348.787 119.616C349.341 120 349.789 120.501 350.131 121.12C350.472 121.717 350.643 122.485 350.643 123.424C350.643 124.512 350.323 125.44 349.683 126.208C349.043 126.976 348.243 127.562 347.283 127.968C346.323 128.352 345.341 128.544 344.339 128.544C343.08 128.544 341.821 128.33 340.563 127.904C339.304 127.456 338.259 126.677 337.427 125.568Z" fill="white"/>
<path d="M198.838 167.447C198.24 167.447 197.75 167.266 197.366 166.903C196.982 166.519 196.79 166.05 196.79 165.495V146.935H200.95V165.495C200.95 166.05 200.747 166.519 200.342 166.903C199.958 167.266 199.456 167.447 198.838 167.447ZM191.766 148.727C191.211 148.727 190.742 148.557 190.358 148.215C189.995 147.874 189.814 147.426 189.814 146.871C189.814 146.317 189.995 145.879 190.358 145.559C190.742 145.218 191.211 145.047 191.766 145.047H205.974C206.528 145.047 206.987 145.218 207.35 145.559C207.734 145.901 207.926 146.349 207.926 146.903C207.926 147.458 207.734 147.906 207.35 148.247C206.987 148.567 206.528 148.727 205.974 148.727H191.766ZM228.209 158.903C228.209 160.653 227.814 162.199 227.025 163.543C226.257 164.866 225.212 165.901 223.889 166.647C222.588 167.394 221.126 167.767 219.505 167.767C217.884 167.767 216.412 167.394 215.089 166.647C213.788 165.901 212.742 164.866 211.953 163.543C211.185 162.199 210.801 160.653 210.801 158.903C210.801 157.154 211.185 155.618 211.953 154.295C212.742 152.951 213.788 151.906 215.089 151.159C216.412 150.391 217.884 150.007 219.505 150.007C221.126 150.007 222.588 150.391 223.889 151.159C225.212 151.906 226.257 152.951 227.025 154.295C227.814 155.618 228.209 157.154 228.209 158.903ZM224.369 158.903C224.369 157.815 224.145 156.877 223.697 156.087C223.27 155.277 222.684 154.647 221.937 154.199C221.212 153.751 220.401 153.527 219.505 153.527C218.609 153.527 217.788 153.751 217.041 154.199C216.316 154.647 215.729 155.277 215.281 156.087C214.854 156.877 214.641 157.815 214.641 158.903C214.641 159.97 214.854 160.909 215.281 161.719C215.729 162.509 216.316 163.127 217.041 163.575C217.788 164.023 218.609 164.247 219.505 164.247C220.401 164.247 221.212 164.023 221.937 163.575C222.684 163.127 223.27 162.509 223.697 161.719C224.145 160.909 224.369 159.97 224.369 158.903Z" fill="white"/>
<g filter="url(#filter0_d_139_76)">
<path fill-rule="evenodd" clip-rule="evenodd" d="M90.8366 113.959C90.0343 112.415 89.0571 111.22 87.905 110.375C86.4884 109.161 84.8695 108.402 83.0482 108.099C81.3281 107.694 79.5574 107.492 77.736 107.492C79.5574 107.289 81.4292 106.682 83.3517 105.67C85.2742 104.658 86.8426 102.989 88.0568 100.662C89.3722 98.2332 90.0299 95.0459 90.0299 91.0998C90.0299 85.8382 88.7145 81.8415 86.0837 79.1095C83.5541 76.2764 79.4562 74.6574 73.7899 74.2527C72.4745 74.1515 70.7038 74.1009 68.4777 74.1009C66.2517 73.9997 63.9245 73.9491 61.4961 73.9491C59.0677 73.848 56.6898 73.7974 54.3626 73.7974H48.5952C46.7739 73.7974 44.9525 73.848 43.1312 73.9491C41.3099 73.9491 39.3369 73.9997 37.212 74.1009H30.3821C28.1561 74.2021 26.3854 74.6574 25.07 75.4669C23.8558 76.2764 23.2487 78.1483 23.2487 81.0826V143.918C25.3735 144.019 28.1055 144.069 31.4445 144.069C34.8848 144.171 39.1345 144.221 44.1937 144.221H62.4067C63.8501 144.221 65.2731 144.201 66.6759 144.16L72.4481 136.945C70.8756 137.401 69.1474 137.702 67.2635 137.847C64.734 138.049 62.1032 138.15 59.3712 138.15H48.8987H42.0688C40.3487 138.049 38.8815 137.998 37.6673 137.998C36.5543 137.897 35.6437 137.847 34.9354 137.847V83.8145C34.9354 82.2968 35.2895 81.2344 35.9978 80.6273C36.8073 79.919 37.7685 79.5648 38.8815 79.5648C40.7028 79.4636 42.9289 79.4131 45.5597 79.4131H54.2108C56.5381 79.4131 58.9159 79.4636 61.3443 79.5648C63.7727 79.5648 65.9987 79.666 68.0224 79.8684C71.665 80.1719 74.2958 81.3355 75.9147 83.3592C77.5337 85.2817 78.3431 88.0137 78.3431 91.5551C78.3431 95.4001 77.6855 98.3344 76.3701 100.358C75.0547 102.281 73.3346 103.545 71.2097 104.152C69.186 104.76 66.96 105.063 64.5316 105.063H38.1227C38.1227 107.087 38.325 108.605 38.7298 109.616C39.1345 110.628 39.9946 111.134 41.3099 111.134H64.9869C71.3615 111.134 75.6112 112.095 77.736 114.018C79.9621 115.839 81.0751 119.229 81.0751 124.187C81.0751 124.912 81.0481 125.604 80.9941 126.263L90.8366 113.959Z" fill="url(#paint0_linear_139_76)"/>
</g>
<g filter="url(#filter1_i_139_76)">
<path d="M25.5995 61.8553L20.5909 30.4125C24.1154 26.8879 28.6603 23.8271 34.2254 21.2301C39.7905 18.4475 45.7266 16.3142 52.0337 14.8302C58.3408 13.1607 64.4624 12.3259 70.3985 12.3259C82.6417 12.3259 93.3082 14.552 102.398 19.004C111.673 23.4561 118.815 29.7632 123.823 37.9254C128.832 46.0875 131.336 55.9192 131.336 67.4204C131.336 76.8811 129.203 86.5273 124.937 96.3589C120.855 106.005 115.476 115.559 108.798 125.019C102.12 134.294 94.885 143.291 87.0938 152.01C79.3027 160.543 71.697 168.52 64.2769 175.94C56.8568 183.174 50.3642 189.667 44.7991 195.418H108.798C114.363 195.418 118.908 194.676 122.432 193.192C126.142 191.708 129.389 189.203 132.171 185.679C135.139 182.154 138.2 177.517 141.354 171.766H144.136L131.058 211H16.6953V208.217C23.1879 202.281 30.5153 195.047 38.6774 186.514C47.0251 177.795 55.3728 168.427 63.7204 158.41C72.0681 148.393 79.7664 138.097 86.8156 127.523C93.8647 116.95 99.5225 106.654 103.789 96.6372C108.241 86.4345 110.467 77.0666 110.467 68.5334C110.467 53.5077 106.85 41.7282 99.6153 33.195C92.5662 24.4764 82.8272 20.3026 70.3985 20.6736C57.4133 20.8591 47.1179 24.4764 39.5122 31.5255C31.9066 38.5746 28.1965 48.6846 28.382 61.8553H25.5995Z" fill="white"/>
</g>
<g filter="url(#filter2_d_139_76)">
<path d="M96 154.994L102.79 146.506C110.361 169.826 109.292 166.263 111.608 173.032L111.612 173.045C113.005 177.117 114.285 180.857 118.787 168.713L152.018 82H172.807C176.202 82 162.96 85.9388 162.96 85.9388L123.899 180.335C121.584 186.035 118.787 189.954 113.389 188.707C102.049 186.088 104.839 176.06 96 154.994Z" fill="url(#paint1_linear_139_76)"/>
</g>
<path d="M38.4955 236.78V244.313H44.0868V248.232H25.5156V244.313H30.5078V224.56H23.6771V227.962H20V220.179H134.226L132.222 224.187L38.4955 224.56V233.091V236.78Z" fill="white"/>
<path d="M50.4229 249V228.048H72.5862V231.469H55.1263V236.386H68.4528V239.914H55.1263V245.579H72.7287L74.154 248.608C74.154 248.703 73.8333 248.798 73.1919 248.893C72.5505 248.964 71.4459 249 69.8781 249H50.4229ZM83.8682 249C82.1816 249 80.8632 248.762 79.913 248.287C78.9629 247.812 78.2977 247.1 77.9176 246.149C77.5376 245.199 77.3475 244.023 77.3475 242.622V234.676C77.3475 232.395 77.8583 230.721 78.8797 229.652C79.9012 228.559 81.564 228.013 83.8682 228.013H94.5936C96.2327 228.013 97.4798 228.108 98.335 228.298C99.2139 228.464 99.6534 228.642 99.6534 228.832L98.9407 231.79C98.5369 231.718 97.3373 231.647 95.3418 231.576C93.3702 231.481 90.4958 231.433 86.7188 231.433H84.9016C83.0012 231.433 82.051 232.277 82.051 233.963V243.049C82.051 243.857 82.2529 244.487 82.6567 244.938C83.0843 245.366 83.8326 245.579 84.9016 245.579H86.3625C90.3058 245.579 93.3583 245.544 95.52 245.472C97.7055 245.377 99.0595 245.282 99.5821 245.187L101.043 247.539C101.043 247.658 100.841 247.836 100.437 248.074C100.057 248.311 99.3445 248.525 98.2993 248.715C97.2541 248.905 95.7457 249 93.774 249H83.8682ZM104.602 249V228.048H109.306V236.742H123.273V228.048H127.977V249H123.273V240.163H109.306V249H104.602Z" fill="white"/>
<defs>
<filter id="filter0_d_139_76" x="23.2487" y="73.7974" width="68.5879" height="71.4238" filterUnits="userSpaceOnUse" color-interpolation-filters="sRGB">
<feFlood flood-opacity="0" result="BackgroundImageFix"/>
<feColorMatrix in="SourceAlpha" type="matrix" values="0 0 0 0 0 0 0 0 0 0 0 0 0 0 0 0 0 0 127 0" result="hardAlpha"/>
<feOffset dx="1" dy="1"/>
<feComposite in2="hardAlpha" operator="out"/>
<feColorMatrix type="matrix" values="0 0 0 0 0 0 0 0 0 0 0 0 0 0 0 0 0 0 1 0"/>
<feBlend mode="normal" in2="BackgroundImageFix" result="effect1_dropShadow_139_76"/>
<feBlend mode="normal" in="SourceGraphic" in2="effect1_dropShadow_139_76" result="shape"/>
</filter>
<filter id="filter1_i_139_76" x="16.6953" y="12.3257" width="127.441" height="198.674" filterUnits="userSpaceOnUse" color-interpolation-filters="sRGB">
<feFlood flood-opacity="0" result="BackgroundImageFix"/>
<feBlend mode="normal" in="SourceGraphic" in2="BackgroundImageFix" result="shape"/>
<feColorMatrix in="SourceAlpha" type="matrix" values="0 0 0 0 0 0 0 0 0 0 0 0 0 0 0 0 0 0 127 0" result="hardAlpha"/>
<feOffset dx="-4"/>
<feComposite in2="hardAlpha" operator="arithmetic" k2="-1" k3="1"/>
<feColorMatrix type="matrix" values="0 0 0 0 0 0 0 0 0 0 0 0 0 0 0 0 0 0 0.25 0"/>
<feBlend mode="normal" in2="shape" result="effect1_innerShadow_139_76"/>
</filter>
<filter id="filter2_d_139_76" x="96" y="82" width="78.3641" height="107.939" filterUnits="userSpaceOnUse" color-interpolation-filters="sRGB">
<feFlood flood-opacity="0" result="BackgroundImageFix"/>
<feColorMatrix in="SourceAlpha" type="matrix" values="0 0 0 0 0 0 0 0 0 0 0 0 0 0 0 0 0 0 127 0" result="hardAlpha"/>
<feOffset dx="1" dy="1"/>
<feComposite in2="hardAlpha" operator="out"/>
<feColorMatrix type="matrix" values="0 0 0 0 0 0 0 0 0 0 0 0 0 0 0 0 0 0 1 0"/>
<feBlend mode="normal" in2="BackgroundImageFix" result="effect1_dropShadow_139_76"/>
<feBlend mode="normal" in="SourceGraphic" in2="effect1_dropShadow_139_76" result="shape"/>
</filter>
<linearGradient id="paint0_linear_139_76" x1="57.0426" y1="73.7974" x2="57.0426" y2="144.221" gradientUnits="userSpaceOnUse">
<stop stop-color="#00046B"/>
<stop offset="1" stop-color="#000AFF"/>
</linearGradient>
<linearGradient id="paint1_linear_139_76" x1="134.682" y1="82" x2="134.682" y2="188.939" gradientUnits="userSpaceOnUse">
<stop stop-color="#1A1E8F"/>
<stop offset="1" stop-color="#1A1E8F"/>
</linearGradient>
</defs>
</svg>
