<svg width="120" height="120" viewBox="0 0 120 120" fill="none" xmlns="http://www.w3.org/2000/svg">
<rect width="120" height="120" fill="white"/>
<path d="M20.6797 86.5232V90.9212C20.6797 92.01 21.7542 92.901 23.106 92.901H96.8842C98.2187 92.901 99.3105 92.0242 99.3105 90.9212V86.5232H20.6797Z" fill="#D3D9D9"/>
<path d="M91.0762 92.901H96.8994C98.2339 92.901 99.3084 92.0242 99.3084 90.9353V86.5374H93.5025V90.9353C93.5025 92.0101 92.428 92.901 91.0762 92.901Z" fill="#A8B2B4"/>
<path d="M28.9102 92.901H23.1043C21.7698 92.901 20.6953 92.0242 20.6953 90.9353V86.5374H26.5012V90.9353C26.5012 92.0101 27.5757 92.901 28.9102 92.901Z" fill="#EDEDED"/>
<path d="M99.3088 45.5274V86.5233H20.6953V45.5274C20.6953 44.4385 21.7698 43.5476 23.1043 43.5476H96.8825C98.217 43.5476 99.3088 44.4385 99.3088 45.5274Z" fill="#D4F0FC"/>
<path d="M71.7013 100H48.2871L52.2386 92.9011H67.7672L71.7013 100Z" fill="white"/>
<path d="M57.2809 89.7194C57.2809 90.2284 56.7783 90.6244 56.1717 90.6244C55.5651 90.6244 55.0625 90.2143 55.0625 89.7194C55.0625 89.2244 55.5651 88.8143 56.1717 88.8143C56.7956 88.8002 57.2809 89.2244 57.2809 89.7194Z" fill="#7C8B8E"/>
<path d="M61.1129 89.7194C61.1129 90.2284 60.6103 90.6244 60.0037 90.6244C59.3971 90.6244 58.8945 90.2143 58.8945 89.7194C58.8945 89.2244 59.3971 88.8143 60.0037 88.8143C60.6276 88.8002 61.1129 89.2244 61.1129 89.7194Z" fill="#7C8B8E"/>
<path d="M64.941 89.7194C64.941 90.2284 64.4384 90.6244 63.8318 90.6244C63.2253 90.6244 62.7227 90.2143 62.7227 89.7194C62.7227 89.2244 63.2253 88.8143 63.8318 88.8143C64.4384 88.8002 64.941 89.2244 64.941 89.7194Z" fill="#7C8B8E"/>
<path d="M91.9747 28.1172H28.0059V78.3757H91.9747V28.1172Z" fill="white"/>
<path d="M91.9756 28.1172H87.5215V78.3757H91.9756V28.1172Z" fill="#EDEDED"/>
<path d="M91.992 21.9798V28.1172H28.0059V21.9657C28.0059 21.1879 28.7684 20.5657 29.7216 20.5657H90.2589C91.2121 20.5657 91.992 21.1879 91.992 21.9798Z" fill="#FB8A8A"/>
<path d="M34.2104 20.5657C33.2572 20.5657 32.4946 21.1879 32.4946 21.9657V28.103H28.0059V21.9657C28.0059 21.1879 28.7684 20.5657 29.7216 20.5657H34.2104Z" fill="#FCB1B1"/>
<path d="M91.9938 21.9798V28.1172H87.5224V21.9798C87.5224 21.202 86.7598 20.5657 85.8066 20.5657H90.278C91.2139 20.5657 91.9938 21.1879 91.9938 21.9798Z" fill="#F96363"/>
<path d="M34.2785 24.9072H33.1346C32.7534 24.9072 32.4414 24.6526 32.4414 24.3415C32.4414 24.0304 32.7534 23.7759 33.1346 23.7759H34.2958C34.6771 23.7759 34.9891 24.0304 34.9891 24.3415C34.9891 24.6526 34.6771 24.9072 34.2785 24.9072Z" fill="#333333"/>
<path d="M39.9111 24.9072H38.7499C38.3686 24.9072 38.0566 24.6526 38.0566 24.3415C38.0566 24.0304 38.3686 23.7759 38.7499 23.7759H39.9111C40.2923 23.7759 40.6043 24.0304 40.6043 24.3415C40.6043 24.6526 40.2923 24.9072 39.9111 24.9072Z" fill="#333333"/>
<path d="M45.5263 24.9072H44.3651C43.9838 24.9072 43.6719 24.6526 43.6719 24.3415C43.6719 24.0304 43.9838 23.7759 44.3651 23.7759H45.5263C45.9076 23.7759 46.2195 24.0304 46.2195 24.3415C46.2195 24.6526 45.9076 24.9072 45.5263 24.9072Z" fill="#333333"/>
<path d="M86.8638 24.9072H55.1307C54.7495 24.9072 54.4375 24.6526 54.4375 24.3415C54.4375 24.0304 54.7495 23.7759 55.1307 23.7759H86.8638C87.2451 23.7759 87.5571 24.0304 87.5571 24.3415C87.5571 24.6526 87.2451 24.9072 86.8638 24.9072Z" fill="#333333"/>
<path d="M96.8804 34.8202H92.669V21.9798C92.669 20.8909 91.5945 20 90.26 20H29.74C28.4055 20 27.331 20.8768 27.331 21.9657V34.8202H23.1023C21.3865 34.8202 20 35.9515 20 37.3656V82.7595C20 84.1595 21.4038 85.3049 23.1196 85.3049H51.1612L47.8336 91.2726H45.8232C45.4419 91.2726 45.13 91.5271 45.13 91.8382C45.13 92.1494 45.4419 92.4039 45.8232 92.4039H74.1421C74.5234 92.4039 74.8354 92.1494 74.8354 91.8382C74.8354 91.5271 74.5234 91.2726 74.1421 91.2726H72.1317L68.8388 85.3049H96.8804C98.5962 85.3049 100 84.1595 100 82.7595V37.3656C100 35.9656 98.5962 34.8202 96.8804 34.8202ZM28.7002 21.9657C28.7002 21.499 29.1681 21.1313 29.7227 21.1313H90.26C90.8319 21.1313 91.2825 21.5131 91.2825 21.9798V27.5515H28.7002V21.9657ZM28.7002 28.6828H91.2825V77.81H28.7002V28.6828ZM21.3865 37.3656C21.3865 36.5878 22.149 35.9515 23.1023 35.9515H27.3137V77.7958H21.3865V37.3656ZM70.6239 91.2726H49.3588L52.669 85.3049H67.3137L70.6239 91.2726ZM98.6135 82.7595C98.6135 83.5372 97.8336 84.1736 96.8804 84.1736H23.1023C22.149 84.1736 21.3692 83.5372 21.3692 82.7595V78.9272H98.6135V82.7595ZM98.6135 77.7958H92.669V35.9515H96.8804C97.8163 35.9515 98.6135 36.602 98.6135 37.3656V77.7958Z" fill="#333333"/>
<path d="M44.7847 56.8823L50.0533 67.2762L42.341 69.8783C41.7864 70.0621 41.1452 69.85 40.9199 69.3975L36.4658 60.6439C36.2405 60.1914 36.5004 59.6682 37.055 59.4843L44.7847 56.8823Z" fill="#FB8A8A"/>
<path d="M49.1334 65.4519L50.0693 67.2761L42.357 69.8782C41.8024 70.062 41.1612 69.8499 40.9359 69.3974L40 67.5731C40.2253 68.0256 40.8666 68.2378 41.4211 68.0539L49.1334 65.4519Z" fill="#F96363"/>
<path d="M44.7849 56.8965L45.7208 58.7207L38.0085 61.3227C37.4539 61.5066 37.1939 62.0298 37.4192 62.4823L36.4834 60.6581C36.2581 60.2056 36.518 59.6823 37.0726 59.4985L44.7849 56.8965Z" fill="#FCB1B1"/>
<path d="M34.0219 62.8357L37.2974 69.2841C37.5227 69.7367 38.164 69.9488 38.7186 69.765L40.781 69.072L36.6735 60.9832L34.6111 61.6761C34.0565 61.8741 33.7792 62.3832 34.0219 62.8357Z" fill="#7AD1F9"/>
<path d="M36.6545 60.9832L37.3651 62.369L35.3027 63.0619C34.7481 63.2458 34.4882 63.769 34.7135 64.2215L34.0029 62.8357C33.7776 62.3832 34.0376 61.8599 34.5921 61.6761L36.6545 60.9832Z" fill="#A6E1FB"/>
<path d="M40.0499 67.6863L40.7605 69.0721L38.6981 69.7651C38.1435 69.9489 37.5023 69.7368 37.277 69.2843L36.5664 67.8984C36.7917 68.3509 37.433 68.563 37.9875 68.3792L40.0499 67.6863Z" fill="#4CC3F7"/>
<path d="M65.3917 56.0197C68.8579 62.8641 73.2774 68.0399 75.9117 68.6055L50.0538 67.2904L44.7852 56.8964L61.9255 41.0439C60.5391 42.9672 61.9255 49.1752 65.3917 56.0197Z" fill="#7AD1F9"/>
<path d="M75.9106 68.6055L50.0527 67.2904L48.6836 64.6035L71.8205 65.65C73.3803 67.3045 74.8014 68.3651 75.9106 68.6055Z" fill="#4CC3F7"/>
<path d="M61.9233 41.0439C61.3514 41.85 61.2474 43.4197 61.594 45.4843L46.1348 59.5692L44.7656 56.8823L61.9233 41.0439Z" fill="#A6E1FB"/>
<path d="M74.0912 53.0784C78.0253 60.8278 79.2731 67.7571 76.8641 68.5773C74.4551 69.3834 69.3251 63.7692 65.391 56.0198C61.4569 48.2703 60.209 41.341 62.618 40.5208C65.0271 39.7006 70.157 45.3289 74.0912 53.0784Z" fill="white"/>
<path d="M74.0911 53.0782C78.0252 60.8276 79.2557 67.7569 76.864 68.5771C75.5295 69.0297 73.3285 67.4741 70.9715 64.6741C72.1327 65.5509 73.1552 65.9185 73.9004 65.664C76.2921 64.8579 75.0616 57.9145 71.1275 50.165C69.3944 46.7428 67.4186 43.7449 65.5469 41.5247C68.1119 43.4337 71.3874 47.7469 74.0911 53.0782Z" fill="#EDEDED"/>
<path d="M71.9785 53.7854C73.2263 56.246 71.7879 59.0601 68.7723 60.0783L67.8711 60.3894C67.0218 59.046 66.1726 57.5611 65.3927 56.0056C64.5955 54.45 63.9196 52.9227 63.3477 51.4803L64.2489 51.1692C67.2818 50.151 70.7307 51.3248 71.9785 53.7854Z" fill="#FDDD8D"/>
<path d="M71.9747 53.7853C73.2225 56.2459 71.784 59.0601 68.7684 60.0782L67.8672 60.3894C67.4513 59.7389 67.0353 59.0459 66.6367 58.3389C69.5483 57.2782 70.9175 54.5207 69.687 52.0884C69.5483 51.8197 69.3924 51.5793 69.219 51.3389C70.4322 51.848 71.4201 52.6964 71.9747 53.7853Z" fill="#FDD267"/>
<path d="M51.2138 71.8867C51.7511 72.9473 50.7632 73.2867 51.3005 74.3473C51.8377 75.422 52.8429 75.0826 53.3802 76.1432C53.9175 77.218 52.9296 77.5432 53.4669 78.6038C54.0041 79.6786 55.0093 79.3392 55.5466 80.3998L50.018 82.2664C49.3941 82.4786 48.6662 82.2382 48.4062 81.7291L42.375 69.8786L49.0474 67.616C49.5847 68.6907 48.5968 69.016 49.1341 70.0907C49.6714 71.1655 50.6766 70.8261 51.2138 71.8867Z" fill="#D3D9D9"/>
<path d="M49.1358 70.1049C49.1531 70.1332 49.1531 70.1473 49.1705 70.1756L43.4859 72.0988L42.3594 69.8927L49.0492 67.6301C49.5864 68.6907 48.5985 69.0301 49.1358 70.1049Z" fill="#E8EAEA"/>
<path d="M55.5459 80.414L50 82.2807C49.3761 82.4928 48.6482 82.2524 48.3882 81.7433L47.2617 79.5372C47.5217 80.0463 48.2496 80.2867 48.8735 80.0746L53.4142 78.5332C53.4142 78.5615 53.4316 78.5756 53.4489 78.6039C54.0035 79.6928 55.0087 79.3534 55.5459 80.414Z" fill="#A8B2B4"/>
<path d="M74.7308 52.8524C71.0566 45.6261 65.632 38.8807 62.3564 39.9837C61.8192 40.1675 63.1883 38.9797 44.3668 56.4019L36.8105 58.9614C36.0133 59.2301 35.5453 59.9372 35.7706 60.6584L34.3322 61.1392C33.4136 61.4503 32.9977 62.2988 33.3616 63.0342L36.6372 69.4826C37.0011 70.218 38.041 70.5857 38.9595 70.2745L40.4153 69.7796C40.7446 70.2321 41.3166 70.5008 41.9405 70.5008L47.7464 81.9412C48.1623 82.7473 49.2888 83.1149 50.2594 82.7897L55.788 80.923C55.9613 80.8665 56.0999 80.7533 56.1692 80.6119C56.2386 80.4705 56.2386 80.3149 56.1692 80.1735C55.4067 78.6745 53.5523 79.1271 54.0722 77.5149C54.4708 76.3129 53.9855 75.3654 52.6684 74.7432C51.8885 74.3756 51.6805 73.9513 51.9058 73.2442C52.2871 72.0564 51.8192 71.0948 50.502 70.4725C49.7394 70.1049 49.5141 69.6806 49.7394 68.9735C49.8261 68.7049 49.9301 68.3655 49.8607 67.9271L50.1727 67.8281C76.4292 69.1998 76.2386 69.3695 77.1224 69.0584C80.398 67.9836 78.4049 60.0928 74.7308 52.8524ZM38.4396 69.2422C38.2316 69.3129 38.0063 69.2281 37.9197 69.0725L34.6441 62.6241C34.5575 62.4685 34.6614 62.2705 34.8521 62.1998L36.2732 61.719L39.8434 68.7614L38.4396 69.2422ZM41.5765 69.1998L37.1224 60.4321C37.0358 60.2624 37.1398 60.0786 37.3304 60.0079L44.4015 57.618L49.1502 66.9655L42.0964 69.3554H42.0791C41.8885 69.4261 41.6632 69.3554 41.5765 69.1998ZM48.5089 68.422C48.4916 68.5069 48.4569 68.6059 48.4223 68.719C48.041 69.9069 48.5089 70.8543 49.8261 71.4766C50.5887 71.8442 50.814 72.2685 50.5887 72.9756C50.2074 74.1634 50.6753 75.125 51.9925 75.7473C52.7724 76.1149 52.9803 76.5533 52.755 77.2463C52.3737 78.4341 52.8417 79.3816 54.1588 80.0038C54.2802 80.0604 54.3841 80.1028 54.4708 80.1594L49.7394 81.7574C49.4621 81.8563 49.1502 81.7432 49.0289 81.517L43.275 70.1756C43.4483 70.1331 48.5783 68.3937 48.5089 68.422ZM50.5367 66.7392L45.5973 56.9958L60.71 43.0241C60.5713 46.8706 62.9283 52.6402 64.7654 56.2322C66.6025 59.8524 69.9301 65.2685 73.3443 67.9129L50.5367 66.7392ZM64.2108 51.8059L64.5228 51.7069C67.1744 50.816 70.242 51.8483 71.3339 54.012C72.4257 56.1756 71.1606 58.6786 68.5089 59.5695L68.197 59.6685C67.4344 58.4524 66.7065 57.1513 66.0306 55.7938C65.3547 54.4503 64.7308 53.1069 64.2108 51.8059ZM76.6025 68.0402C74.5401 68.7473 69.9127 62.2988 68.8556 60.6725L69.0635 60.6018C72.4257 59.4705 74.0375 56.3029 72.6337 53.5594C71.2472 50.816 67.3651 49.5009 64.0029 50.6463L63.7949 50.717C63.1363 48.9493 60.814 41.7372 62.8937 41.0302C65.6493 40.0968 71.6978 49.8261 73.4483 53.2766C77.6944 61.6624 78.145 67.5311 76.6025 68.0402Z" fill="#333333"/>
<path d="M84.5926 61.6203L81.1611 60.5738C80.7972 60.4607 80.6238 60.1355 80.7625 59.8385C80.9011 59.5415 81.2997 59.4001 81.6637 59.5132L85.0952 60.5597C85.4592 60.6728 85.6325 60.9981 85.4939 61.2951C85.3379 61.592 84.9393 61.7334 84.5926 61.6203Z" fill="#333333"/>
<path d="M82.4088 55.8221C82.0275 55.8221 81.7329 55.5817 81.7155 55.2706C81.6982 54.9595 82.0102 54.705 82.3914 54.6908L86.0656 54.6201H86.083C86.4642 54.6201 86.7589 54.8605 86.7762 55.1716C86.7935 55.4827 86.4816 55.7373 86.1003 55.7514C86.0136 55.7656 82.1661 55.8363 82.4088 55.8221Z" fill="#333333"/>
<path d="M80.5716 50.887C80.433 50.6042 80.5889 50.2648 80.9529 50.1517L84.3324 49.0062C84.6791 48.8931 85.095 49.0204 85.2337 49.3173C85.3723 49.6002 85.2163 49.9396 84.8524 50.0527L81.4728 51.1981C81.1262 51.3113 80.7103 51.1699 80.5716 50.887Z" fill="#333333"/>
<path d="M77.5698 47.1255C77.3098 46.8992 77.3098 46.5457 77.5871 46.3194L80.2388 44.2548C80.5161 44.0427 80.9494 44.0427 81.2267 44.2689C81.4866 44.4952 81.4866 44.8487 81.2093 45.075L78.5404 47.1396C78.2631 47.3517 77.8298 47.3517 77.5698 47.1255Z" fill="#333333"/>
<path d="M72.9286 44.4382C72.582 44.3109 72.426 43.9715 72.582 43.6887L74.0898 40.9594C74.2458 40.6766 74.6617 40.5493 75.0084 40.6766C75.355 40.8039 75.511 41.1433 75.355 41.4261L73.8472 44.1554C73.6912 44.4523 73.2753 44.5655 72.9286 44.4382Z" fill="#333333"/>
</svg>
