<svg width="120" height="120" viewBox="0 0 120 120" fill="none" xmlns="http://www.w3.org/2000/svg">
<rect width="120" height="120" fill="white"/>
<path d="M60.003 70.274C65.1554 70.274 69.3323 65.5776 69.3323 59.7842C69.3323 53.9909 65.1554 49.2944 60.003 49.2944C54.8507 49.2944 50.6738 53.9909 50.6738 59.7842C50.6738 65.5776 54.8507 70.274 60.003 70.274Z" fill="#00D8FF"/>
<path fill-rule="evenodd" clip-rule="evenodd" d="M60.6876 37.6736C76.594 37.7955 93.9482 39.1002 105.861 51.0448C106.211 51.3961 106.548 51.7616 106.877 52.1387C109.688 55.3597 111.157 60.5601 108.888 64.8399C104.234 73.6266 93.8253 77.459 83.7482 79.8179C68.6773 83.3458 52.9188 83.3739 37.8542 80.2677C29.1854 78.478 20.3208 75.3414 14.1603 68.78C11.7624 66.2266 9.71238 62.8675 10.0332 59.1288C10.5541 53.0804 15.7145 49.1988 20.0583 46.5705C32.1229 39.2712 46.823 37.6385 60.6876 37.6736ZM59.5335 40.4214C44.4834 40.5362 28.1937 41.6161 16.5728 52.4362C16.1666 52.8134 15.7749 53.2092 15.3978 53.6239C15.1541 53.8909 14.9187 54.1697 14.6916 54.4555C12.652 57.0322 11.9499 61.1715 13.8749 64.2659C15.8124 67.3791 18.7541 69.6256 21.7833 71.4575C33.1125 78.307 46.5001 79.5228 59.5522 79.5743C72.7669 79.6282 86.394 78.2742 98.067 71.4879C102.717 68.7823 107.95 64.8094 107.765 59.6933C107.594 54.9989 103.523 52.0989 100.475 50.0281C99.6503 49.4682 98.8024 48.9505 97.942 48.4633C86.3544 41.9347 72.7752 40.3886 59.5335 40.4214Z" fill="#00D8FF"/>
<path fill-rule="evenodd" clip-rule="evenodd" d="M81.0727 10.0014C86.8915 10.1677 89.9061 18.0339 90.304 23.8434C90.3832 24.9982 90.4124 26.1578 90.3999 27.3173C90.3874 28.5729 90.3269 29.8285 90.229 31.0794C89.0019 46.5682 82.7123 61.319 75.306 74.9408C68.0622 88.265 59.2289 101.552 47.2121 107.727C43.2392 109.769 38.5142 111.03 34.9975 108.75C30.1766 105.628 29.6496 98.3238 29.7391 92.7838C29.7621 91.4227 29.8412 90.0617 29.9662 88.7054C31.8183 68.6534 40.858 49.6579 52.1705 33.2931C58.7705 23.745 66.6227 14.2742 76.404 10.8447C77.9435 10.3036 79.1665 9.97565 81.0727 10.0014ZM80.7936 12.7468C73.9623 12.8687 67.8289 18.561 62.3976 24.4759C48.1184 40.0232 37.5954 60.7006 33.3621 82.3853C33.035 84.0649 32.76 85.7562 32.5579 87.4592C32.4017 88.778 32.2871 90.1039 32.2267 91.4345C32.1787 92.4933 32.1621 93.5544 32.1912 94.6156C32.2121 95.4449 32.26 96.2741 32.3412 97.0987C32.4017 97.7288 32.4829 98.3566 32.585 98.9797C32.6621 99.4412 32.7517 99.9003 32.8558 100.357C32.9412 100.727 33.0371 101.095 33.1454 101.46C33.9975 104.349 36.1933 107.108 39.1413 107.2C46.0184 107.41 52.4934 101.772 58.0914 95.644C67.9185 84.8895 75.2414 71.3755 80.9623 57.1704C85.579 45.7014 89.8019 33.2345 87.4436 20.6107C87.354 20.1328 87.2498 19.6596 87.1311 19.1911C87.0332 18.8093 86.9228 18.4321 86.8019 18.0597C85.8853 15.251 83.729 12.7398 80.7936 12.7468Z" fill="#00D8FF"/>
<path fill-rule="evenodd" clip-rule="evenodd" d="M39.3943 10.1045C46.8193 10.2661 53.4881 15.9326 59.409 22.2785C70.2132 33.8576 78.182 48.5874 84.2279 64.0902C88.9112 76.1003 93.2196 89.5815 89.3904 102.255C88.1841 106.249 85.132 109.903 81.0632 109.997C73.6028 110.165 66.6882 104.065 60.6882 97.4992C45.636 81.0219 34.4609 59.2693 30.6318 36.2001C30.3567 34.551 30.138 32.8878 29.988 31.2176C29.8651 29.8542 29.788 28.4839 29.7672 27.1135C29.7505 26.0078 29.7713 24.9022 29.8401 23.8012C29.8859 23.0656 29.9526 22.3348 30.0422 21.6062C30.1276 20.9222 30.2359 20.2405 30.3713 19.5659C30.4609 19.1185 30.5609 18.6757 30.6755 18.2353C31.7984 13.9181 34.7193 10.0717 39.3943 10.1045ZM39.113 12.8522C34.7651 12.96 32.7755 18.7249 32.3755 22.7705C32.2943 23.5997 32.2443 24.436 32.2213 25.2723C32.1922 26.3405 32.2047 27.411 32.2526 28.4792C32.9359 43.9375 39.0818 58.8828 46.4985 72.5678C53.4819 85.4516 61.9152 98.284 73.5153 104.88C76.8653 106.785 80.9362 108.282 83.8299 106.483C87.4591 104.225 87.9049 98.8438 88.0987 94.8334C88.1508 93.7418 88.157 92.6455 88.1258 91.5516C88.0883 90.1788 87.9925 88.8085 87.8487 87.4451C86.5112 74.7088 81.4945 62.6566 75.732 51.2672C68.5611 37.0997 59.7756 22.9789 47.3422 15.6024C44.7672 14.075 41.9797 12.8265 39.113 12.8522Z" fill="#00D8FF"/>
</svg>
