<svg width="120" height="120" viewBox="0 0 120 120" fill="none" xmlns="http://www.w3.org/2000/svg">
<g clip-path="url(#clip0_1932_204)">
<path d="M120 0H0V120H120V0Z" fill="white"/>
<path d="M60.003 70.2735C65.1554 70.2735 69.3323 65.5771 69.3323 59.7837C69.3323 53.9904 65.1554 49.2939 60.003 49.2939C54.8507 49.2939 50.6738 53.9904 50.6738 59.7837C50.6738 65.5771 54.8507 70.2735 60.003 70.2735Z" fill="#00D8FF"/>
<path fill-rule="evenodd" clip-rule="evenodd" d="M60.6876 37.6734C76.594 37.7953 93.9482 39.1 105.861 51.0446C106.211 51.3959 106.548 51.7614 106.877 52.1385C109.688 55.3595 111.157 60.5599 108.888 64.8397C104.234 73.6264 93.8253 77.4588 83.7482 79.8177C68.6773 83.3456 52.9188 83.3737 37.8542 80.2675C29.1854 78.4778 20.3208 75.3412 14.1603 68.7798C11.7624 66.2264 9.7124 62.8673 10.0332 59.1286C10.5541 53.0802 15.7145 49.1986 20.0583 46.5703C32.1229 39.271 46.823 37.6383 60.6876 37.6734ZM59.5335 40.4212C44.4834 40.536 28.1937 41.6159 16.5728 52.436C16.1666 52.8132 15.7749 53.209 15.3978 53.6237C15.1541 53.8907 14.9187 54.1695 14.6916 54.4553C12.652 57.032 11.9499 61.1713 13.8749 64.2657C15.8124 67.3789 18.7541 69.6254 21.7833 71.4573C33.1125 78.3068 46.5001 79.5226 59.5522 79.5741C72.7669 79.628 86.394 78.274 98.067 71.4877C102.717 68.7821 107.95 64.8092 107.765 59.6931C107.594 54.9987 103.523 52.0987 100.475 50.0279C99.6503 49.468 98.8024 48.9503 97.942 48.4631C86.3544 41.9345 72.7752 40.3884 59.5335 40.4212Z" fill="#00D8FF"/>
<path fill-rule="evenodd" clip-rule="evenodd" d="M81.0727 10.0014C86.8915 10.1677 89.9061 18.0339 90.304 23.8434C90.3832 24.9982 90.4124 26.1578 90.3999 27.3173C90.3874 28.5729 90.3269 29.8285 90.229 31.0794C89.0019 46.5682 82.7123 61.319 75.306 74.9408C68.0622 88.265 59.2289 101.552 47.2121 107.727C43.2392 109.769 38.5142 111.03 34.9975 108.75C30.1766 105.628 29.6496 98.3238 29.7391 92.7838C29.7621 91.4227 29.8412 90.0617 29.9662 88.7054C31.8183 68.6534 40.858 49.6579 52.1705 33.2931C58.7705 23.745 66.6227 14.2742 76.404 10.8447C77.9435 10.3036 79.1665 9.97566 81.0727 10.0014ZM80.7936 12.7468C73.9623 12.8687 67.8289 18.561 62.3976 24.4759C48.1184 40.0232 37.5954 60.7006 33.3621 82.3853C33.035 84.0649 32.76 85.7562 32.5579 87.4592C32.4017 88.778 32.2871 90.1039 32.2267 91.4345C32.1787 92.4933 32.1621 93.5544 32.1912 94.6156C32.2121 95.4449 32.26 96.2741 32.3412 97.0987C32.4017 97.7288 32.4829 98.3566 32.585 98.9797C32.6621 99.4412 32.7517 99.9003 32.8558 100.357C32.9412 100.727 33.0371 101.095 33.1454 101.46C33.9975 104.349 36.1933 107.108 39.1413 107.2C46.0184 107.41 52.4934 101.772 58.0914 95.644C67.9185 84.8895 75.2414 71.3755 80.9623 57.1704C85.579 45.7014 89.8019 33.2345 87.4436 20.6107C87.354 20.1328 87.2498 19.6596 87.1311 19.1911C87.0332 18.8093 86.9228 18.4321 86.8019 18.0597C85.8853 15.251 83.729 12.7398 80.7936 12.7468Z" fill="#00D8FF"/>
<path fill-rule="evenodd" clip-rule="evenodd" d="M39.3943 10.1047C46.8193 10.2663 53.4881 15.9328 59.409 22.2787C70.2132 33.8578 78.182 48.5876 84.2279 64.0904C88.9112 76.1005 93.2196 89.5817 89.3904 102.255C88.1841 106.249 85.132 109.903 81.0632 109.997C73.6028 110.165 66.6882 104.065 60.6882 97.4994C45.636 81.0221 34.4609 59.2695 30.6318 36.2003C30.3567 34.5512 30.138 32.888 29.988 31.2178C29.8651 29.8544 29.788 28.4841 29.7672 27.1137C29.7505 26.008 29.7713 24.9024 29.8401 23.8014C29.8859 23.0658 29.9526 22.335 30.0422 21.6064C30.1276 20.9224 30.2359 20.2407 30.3713 19.5661C30.4609 19.1187 30.5609 18.6759 30.6755 18.2355C31.7984 13.9183 34.7193 10.0719 39.3943 10.1047ZM39.113 12.8524C34.7651 12.9602 32.7755 18.7251 32.3755 22.7707C32.2943 23.5999 32.2443 24.4362 32.2213 25.2725C32.1922 26.3407 32.2047 27.4112 32.2526 28.4794C32.9359 43.9377 39.0818 58.883 46.4985 72.568C53.4819 85.4518 61.9152 98.2842 73.5153 104.88C76.8653 106.785 80.9362 108.282 83.8299 106.483C87.4591 104.225 87.9049 98.844 88.0987 94.8336C88.1508 93.742 88.157 92.6457 88.1258 91.5518C88.0883 90.179 87.9925 88.8087 87.8487 87.4453C86.5112 74.709 81.4945 62.6568 75.732 51.2674C68.5611 37.0999 59.7756 22.9791 47.3422 15.6026C44.7672 14.0752 41.9797 12.8267 39.113 12.8524Z" fill="#00D8FF"/>
</g>
<defs>
<clipPath id="clip0_1932_204">
<rect width="120" height="120" fill="white"/>
</clipPath>
</defs>
</svg>
